<svg xmlns="http://www.w3.org/2000/svg" viewBox="0 0 73.43 97.13"><defs><style>.cls-1{fill:#f8b600;}.cls-2{fill:#dd00a1;}</style></defs><g id="Layer_2" data-name="Layer 2"><g id="Layer_1-2" data-name="Layer 1"><polygon class="cls-1" points="16 64.05 6.26 85.07 21.53 80.17 28.79 88.92 34.09 73.14 28.07 67.09 22.07 64.05 16 64.05"/><polygon class="cls-1" points="37.42 72.24 35.03 81.1 40.55 93.56 49.54 80.82 59.49 81.16 49.88 64.48 47.26 64.48 43.48 69.11 37.42 72.24"/><path class="cls-2" d="M30.24,97.13a1.48,1.48,0,0,1-1.17-.56l-7.93-9.91-12.94,4a1.49,1.49,0,0,1-1.83-2L16,64.05a1.5,1.5,0,0,1,2.79,1.09l-8.5,21.72L21.23,83.5a1.51,1.51,0,0,1,1.62.49l6.81,8.52L36.3,71.63a1.5,1.5,0,0,1,2.86.91L31.67,96.09a1.53,1.53,0,0,1-1.16,1Z"/><path class="cls-2" d="M45.22,97.13A1.5,1.5,0,0,1,44,96.44l-9.63-15a1.5,1.5,0,0,1,2.52-1.62l8.36,13,6.24-9.8a1.52,1.52,0,0,1,1.39-.69l9.85.83L51.55,65.5a1.5,1.5,0,0,1,2.54-1.6L66.83,84.13a1.52,1.52,0,0,1,0,1.58,1.5,1.5,0,0,1-1.41.71l-11.94-1-7,11a1.5,1.5,0,0,1-1.26.69Z"/><path class="cls-2" d="M36.77,73.51a9.61,9.61,0,0,1-6.84-2.83L25.23,66h-8a9.64,9.64,0,0,1-9.63-9.64V48.3l-4.7-4.69a9.63,9.63,0,0,1,0-13.68l4.7-4.7v-8a9.64,9.64,0,0,1,9.63-9.63h8.05l4.7-4.7a9.63,9.63,0,0,1,13.68,0l4.69,4.7h8.05A9.64,9.64,0,0,1,66,17.18v8.05l4.69,4.7a9.89,9.89,0,0,1,0,13.66l0,0L66,48.3v8.05A9.65,9.65,0,0,1,56.35,66H48.3l-4.69,4.69A9.65,9.65,0,0,1,36.77,73.51Zm-19.59-63a6.63,6.63,0,0,0-6.63,6.63v8.67a1.5,1.5,0,0,1-.44,1.06L5,32.05a6.6,6.6,0,0,0,0,9.44l5.14,5.13a1.52,1.52,0,0,1,.44,1.06v8.67A6.64,6.64,0,0,0,17.18,63h8.67a1.46,1.46,0,0,1,1.06.44l5.14,5.13a6.6,6.6,0,0,0,9.44,0l5.13-5.13A1.47,1.47,0,0,1,47.68,63h8.67A6.65,6.65,0,0,0,63,56.35V47.68a1.47,1.47,0,0,1,.44-1.06l5.12-5.12a6.88,6.88,0,0,0,0-9.47l-5.12-5.12A1.46,1.46,0,0,1,63,25.85V17.18a6.64,6.64,0,0,0-6.64-6.63H47.68a1.52,1.52,0,0,1-1.06-.44L41.49,5a6.6,6.6,0,0,0-9.44,0l-5.14,5.14a1.5,1.5,0,0,1-1.06.44Zm52.44,32h0Z"/><path class="cls-2" d="M36.61,62.87a7.17,7.17,0,0,1-5.08-2.14l-3.1-3.2H23.07a7.18,7.18,0,0,1-7.18-7.17V45l-3.2-3.2a7.11,7.11,0,0,1,0-10.15l3.2-3.2V23.07a7.19,7.19,0,0,1,7.18-7.18h5.37l3.2-3.2a7.13,7.13,0,0,1,10.15,0l3.2,3.2h5.37a7.18,7.18,0,0,1,7.17,7.18v5.37l3.2,3.2a7.24,7.24,0,0,1,2,5.13,7,7,0,0,1-2.15,5L57.42,45v5.37a7.18,7.18,0,0,1-7.17,7.17H44.88l-3.2,3.2A7.17,7.17,0,0,1,36.61,62.87Zm-13.54-44a4.23,4.23,0,0,0-4.18,4.18v6a1.46,1.46,0,0,1-.44,1.06l-3.63,3.64a4.13,4.13,0,0,0,0,5.91l3.63,3.63a1.5,1.5,0,0,1,.44,1.07v6a4.23,4.23,0,0,0,4.18,4.17h6a1.52,1.52,0,0,1,1.08.46l3.53,3.64a4.12,4.12,0,0,0,5.89,0L43.2,55a1.5,1.5,0,0,1,1.06-.44h6a4.23,4.23,0,0,0,4.17-4.17v-6a1.54,1.54,0,0,1,.44-1.07l3.64-3.63,0,0a4,4,0,0,0,1.23-2.9,4.25,4.25,0,0,0-1.18-3L55,30.12a1.5,1.5,0,0,1-.44-1.06v-6a4.23,4.23,0,0,0-4.17-4.18h-6a1.5,1.5,0,0,1-1.07-.44l-3.63-3.63a4.22,4.22,0,0,0-5.91,0l-3.64,3.63a1.46,1.46,0,0,1-1.06.44Z"/><path class="cls-2" d="M32.38,45.76a1.5,1.5,0,0,1-1.06-.44L24.9,38.9A1.5,1.5,0,0,1,27,36.78l5.32,5.32L46.27,27.18a1.5,1.5,0,0,1,2.19,2.05l-15,16.05a1.48,1.48,0,0,1-1.07.48Z"/></g></g></svg>