<svg xmlns="http://www.w3.org/2000/svg" viewBox="0 0 96.88 96.88"><defs><style>.cls-1{fill:#f8b600;}.cls-2{fill:#dd00a1;}</style></defs><g id="Layer_2" data-name="Layer 2"><g id="Layer_1-2" data-name="Layer 1"><rect class="cls-1" x="74.27" y="1.74" width="18.25" height="24.67"/><rect class="cls-1" x="74.27" y="33.75" width="18.25" height="24.67"/><rect class="cls-1" x="74.27" y="64.67" width="18.25" height="24.67"/><path class="cls-2" d="M96.88,31.25V3.12H75v12.5H51.35a29.9,29.9,0,0,0-5.14-4.34,3.09,3.09,0,0,0,.67-1.9V3.12A3.13,3.13,0,0,0,43.75,0H15.62A3.12,3.12,0,0,0,12.5,3.12V9.38a3.09,3.09,0,0,0,.67,1.9A29.67,29.67,0,0,0,23.44,65v5.36a4.7,4.7,0,0,0,.62,2.3,4.67,4.67,0,0,0-2.18,4v12.5a7.81,7.81,0,1,0,15.62,0V81.25H75v12.5H96.88V65.62H75v12.5H37.5V76.56a4.68,4.68,0,0,0-2.19-4,4.61,4.61,0,0,0,.63-2.3V65A29.76,29.76,0,0,0,55.82,50H75V62.5H96.88V34.38H75v12.5H57.26a29.57,29.57,0,0,0-3.35-28.13H75v12.5ZM78.12,68.75H93.75V90.62H78.12Zm0-31.25H93.75V59.38H78.12ZM46.86,25.11A20.13,20.13,0,0,1,50,35.94,20.31,20.31,0,1,1,12.51,25.11a3.12,3.12,0,0,0,3.11,3v3.13a3.13,3.13,0,0,0-3.12,3.13v6.24a3.13,3.13,0,0,0,3.12,3.13H43.75a3.13,3.13,0,0,0,3.13-3.13V34.38a3.13,3.13,0,0,0-3.13-3.13V28.12A3.12,3.12,0,0,0,46.86,25.11Zm-3.11,9.27v6.24H15.62V34.38Zm-25-3.13V28.12H40.62v3.13ZM15.62,25V18.75H43.75V25Zm3.13-9.38V12.5H40.62v3.12ZM15.62,3.12H43.75V9.38H15.62ZM34.38,89.06a4.69,4.69,0,0,1-9.38,0V76.56A1.56,1.56,0,0,1,26.56,75h6.25a1.57,1.57,0,0,1,1.57,1.56ZM32.81,70.31a1.57,1.57,0,0,1-1.56,1.57H28.12a1.57,1.57,0,0,1-1.56-1.57V65.46a30.6,30.6,0,0,0,6.25,0ZM29.69,62.5A26.56,26.56,0,0,1,15.62,13.41v2.21a3.13,3.13,0,0,0-3.12,3.13V20a23.43,23.43,0,1,0,40.62,15.9A23.27,23.27,0,0,0,46.88,20V18.75a3.14,3.14,0,0,0-3.13-3.13V13.41A26.56,26.56,0,0,1,29.69,62.5ZM78.12,6.25H93.75V28.12H78.12Z"/></g></g></svg>