<svg xmlns="http://www.w3.org/2000/svg" viewBox="0 0 90.51 68.81"><defs><style>.cls-1{fill:#dd00a1;}.cls-2{fill:#f8b600;}.cls-3{fill:#f88600;}</style></defs><g id="Layer_2" data-name="Layer 2"><g id="Layer_1-2" data-name="Layer 1"><path class="cls-1" d="M74.35,0h0C65.37,0,52,4.78,42.43,14.45A18,18,0,0,0,24.54,29.58l-.41,2.27c-.15.59.38,1,.89,1.17l5.37.69.41.41-1.1,3.3a1.28,1.28,0,0,0,.35,1.38l2.06,2.06a6.25,6.25,0,0,0-8.32.76c-2.76,2.75-3.1,11-3.17,11.9A1.52,1.52,0,0,0,22.14,55c1-.07,9.21-.41,11.9-3.16a6.17,6.17,0,0,0,.75-8.26l2.07,2.07A1.45,1.45,0,0,0,38.3,46l3.3-1.1.42.41.68,5.37a1.06,1.06,0,0,0,1.17.89l2.27-.34A18,18,0,0,0,61.28,33.36c9.51-9.44,14.44-22.84,14.44-31.92A1.4,1.4,0,0,0,74.35,0ZM32.59,50.42c-1.65,1.65-7.08,2.34-9.77,2.48.21-2.75.83-8.12,2.48-9.77,2.13-2.13,4.73-1.67,6.88.48S34.79,48.23,32.59,50.42ZM31.9,32.26l1.17-1.72,5.37,5.37L37,37.35ZM32.66,35,36,38.32l-.55.55a1,1,0,0,0,0,1.44,1.17,1.17,0,0,0,1.51,0l.56-.55,3.3,3.3-2.69.9L31.83,37.7Zm7.22,2.34,5.37,5.37-1.72,1.17-5-5Zm13.28-.07-6.81,4.61-5.5-5.5,8.46-8.46a1,1,0,1,0-1.45-1.45l-8.53,8.4-5.5-5.51,4.61-6.81A47,47,0,0,1,62.65,4.33a10.94,10.94,0,0,1,8.74,8.74A46.89,46.89,0,0,1,53.16,37.28Zm11.9-33.7a50.43,50.43,0,0,1,8.53-1.52,45.08,45.08,0,0,1-1.51,8.53A12.56,12.56,0,0,0,65.06,3.58ZM26.54,29.92A16,16,0,0,1,40.36,16.65a48.86,48.86,0,0,0-3.64,4.74L29.91,31.51l-3.51-.42ZM45.8,49.18l-1.17.21-.41-3.51,10.11-6.81a48.86,48.86,0,0,0,4.74-3.64A15.88,15.88,0,0,1,45.8,49.18ZM58.52,10.32A6.88,6.88,0,1,0,65.4,17.2,6.89,6.89,0,0,0,58.52,10.32Zm0,11.69a4.82,4.82,0,1,1,4.82-4.81A4.78,4.78,0,0,1,58.52,22Z"/><path class="cls-2" d="M20.84,34.19a9.16,9.16,0,0,1-9.14-9.14.86.86,0,0,0-1.71,0A9.16,9.16,0,0,1,.86,34.19a.86.86,0,1,0,0,1.71A9.16,9.16,0,0,1,10,45a.86.86,0,0,0,1.71,0,9.16,9.16,0,0,1,9.14-9.14.86.86,0,1,0,0-1.71Zm-10,6.62A11,11,0,0,0,5.08,35a10.94,10.94,0,0,0,5.77-5.76A10.89,10.89,0,0,0,16.61,35,10.94,10.94,0,0,0,10.85,40.81Z"/><path class="cls-3" d="M34.1,62.69a4.91,4.91,0,0,1,4.9,4.9,1.23,1.23,0,0,0,2.45,0,4.91,4.91,0,0,1,4.9-4.9,1.23,1.23,0,0,0,0-2.45,4.91,4.91,0,0,1-4.9-4.9,1.23,1.23,0,0,0-2.45,0,4.91,4.91,0,0,1-4.9,4.9,1.23,1.23,0,0,0,0,2.45Zm6.12-3.27a7.08,7.08,0,0,0,2,2,7.08,7.08,0,0,0-2,2,7,7,0,0,0-2-2A7.91,7.91,0,0,0,40.22,59.42Z"/><path class="cls-3" d="M89.36,29.4a4.57,4.57,0,0,1-4.56-4.56,1.14,1.14,0,1,0-2.28,0A4.57,4.57,0,0,1,78,29.4a1.14,1.14,0,1,0,0,2.28,4.58,4.58,0,0,1,4.56,4.57,1.14,1.14,0,0,0,2.28,0,4.58,4.58,0,0,1,4.56-4.57,1.14,1.14,0,1,0,0-2.28Zm-5.7,3a6.49,6.49,0,0,0-1.9-1.9,6.49,6.49,0,0,0,1.9-1.9,6.37,6.37,0,0,0,1.9,1.9A7.46,7.46,0,0,0,83.66,32.44Z"/></g></g></svg>