<svg xmlns="http://www.w3.org/2000/svg" viewBox="0 0 79.88 79.76"><defs><style>.cls-1{fill:#dd00a1;}.cls-2{fill:#f8b600;}.cls-3{fill:#f88600;}</style></defs><g id="Layer_2" data-name="Layer 2"><g id="Layer_1-2" data-name="Layer 1"><g id="Speed"><path class="cls-1" d="M69.43,38.45a1.45,1.45,0,0,1,0,2.1l-33,33a21.32,21.32,0,0,1-30.2-30.1l43-43a1.44,1.44,0,0,1,2.09,0,1.45,1.45,0,0,1,0,2.1l-43,43a18.11,18.11,0,0,0,0,25.8,18.41,18.41,0,0,0,25.9,0l33-33A2,2,0,0,1,69.43,38.45Z"/><path class="cls-1" d="M21.33,43.05a15.5,15.5,0,1,1-15.5,15.5A15.58,15.58,0,0,1,21.33,43.05Zm0,3a12.5,12.5,0,1,0,12.5,12.5A12.5,12.5,0,0,0,21.33,46.05Zm0,3a9.5,9.5,0,1,1-9.5,9.5A9.56,9.56,0,0,1,21.33,49.05Zm0,2a7.5,7.5,0,1,0,7.5,7.5A7.55,7.55,0,0,0,21.33,51.05Z"/><path class="cls-2" d="M77.23,18.45l-37,37a1.45,1.45,0,0,0,0,2.1,1.7,1.7,0,0,0,2.2,0l37-37a1.45,1.45,0,0,0,0-2.1A1.8,1.8,0,0,0,77.23,18.45Z"/><path class="cls-3" d="M44.23,38.65a1.68,1.68,0,0,0,2.19,0l33-33a1.45,1.45,0,0,0,0-2.1,1.45,1.45,0,0,0-2.1,0l-33,33A1.55,1.55,0,0,0,44.23,38.65Z"/><path class="cls-2" d="M51.43,15.45a1.45,1.45,0,0,0-2.1,0l-20,20a1.45,1.45,0,0,0,0,2.1,1.71,1.71,0,0,0,2.2,0l20-20A1.81,1.81,0,0,0,51.43,15.45Z"/><path class="cls-2" d="M61.43,7.65l5-5a1.45,1.45,0,0,0,0-2.1,1.45,1.45,0,0,0-2.1,0l-5,5a1.45,1.45,0,0,0,0,2.1A1.58,1.58,0,0,0,61.43,7.65Z"/><path class="cls-1" d="M55.43,13.65l2-2a1.48,1.48,0,0,0-2.1-2.1l-2,2a1.45,1.45,0,0,0,0,2.1A1.58,1.58,0,0,0,55.43,13.65Z"/><path class="cls-1" d="M40.23,40.45l-3,3a1.45,1.45,0,0,0,0,2.1,1.71,1.71,0,0,0,2.2,0l3-3a1.45,1.45,0,0,0,0-2.1A1.8,1.8,0,0,0,40.23,40.45Z"/></g></g></g></svg>