<svg xmlns="http://www.w3.org/2000/svg" viewBox="0 0 87.82 87.71"><defs><style>.cls-1{fill:#f8b600;}.cls-2{fill:#dd00a1;}</style></defs><g id="Layer_2" data-name="Layer 2"><g id="Layer_1-2" data-name="Layer 1"><path class="cls-1" d="M18.42,6.86s-7.09,4-9.63,7.71S3.58,25.2,3.58,25.2s.27,2.13,4.24,1,3.88-4.59,5.51-5.32,4-.4,5.09-2C21,15,18.42,6.86,18.42,6.86Z"/><path class="cls-1" d="M53.74,0s-2.45,3.17-2.58,5.26,1,5.3,0,6-4.36.1-6.33,1.19-.22,3.81-2,5-4.5,2.61-4.08,4,6,1.9,9.67,1.9,6.68,3.56,5.93,5.46-1.84,3.47-3.75,3.09S38.9,28.61,35,30.24s-9.12,3.61-9,7.9,2.32,9.32,7.22,10.45,7.36.72,9.95,1.54,6.64,6.46,5.31,8.85,1,12.08,2.18,11.76,6.54-3,6.81-6.58,3.41-12.81,4.5-13.49S63,48.05,63,48.05s-3.74-3.59-3.93-6.54-.18-1.93,2.54-3.13,3.14.65,3.14.65-.83-5.72,2-7.19,4.75-2,6.73-1.6a8.47,8.47,0,0,1,3.4,1.6,37.47,37.47,0,0,1,5.77-1.31c1.4,0,3.72-.15,3.72-.15A39.74,39.74,0,0,0,75.67,12C67.23,4.09,53.74,0,53.74,0Z"/><path class="cls-1" d="M.86,34.33S-1.08,47.13.86,56A34.18,34.18,0,0,0,8.38,70.74s4.91-.86,4.91-2.9,2.72-8,1.77-10.36-6.67-7.37-6-8.89,3.13-7.52,2.52-10S5.46,32.83.86,34.33Z"/><path class="cls-1" d="M20.23,82.6s4.23-4.68,7.5-5.77a25.33,25.33,0,0,1,14.3,0,17,17,0,0,1,7.22,4.63l1.36,1.14s-9.59,2-16.21,1.92A73.49,73.49,0,0,1,20.23,82.6Z"/><path class="cls-2" d="M44.34.75A43.48,43.48,0,1,0,87.82,44.23,43.48,43.48,0,0,0,44.34.75Zm39.14,32.1c-2.12-.69-4.43.08-6.18.65-.4.14-.91.31-1.24.39a7.64,7.64,0,0,0-5.15-2.25,4.11,4.11,0,0,0-3.4,1.46,4.19,4.19,0,0,0-.89,3.63,8.78,8.78,0,0,0,.62,1.64,5.49,5.49,0,0,1,.42,1.08,1.5,1.5,0,0,1-.34.16A3.88,3.88,0,0,1,64.79,39a3.52,3.52,0,0,0-3.14-.65,4.06,4.06,0,0,0-2.54,3.13c-.48,2.23.76,3.56,1.86,4.73l.53.57a9.58,9.58,0,0,0,4.22,2.45l.62.23-.19.32c-.17.27-.34.56-.5.84-.3.5-.6,1-.91,1.48s-.84,1.14-1.3,1.73a16.51,16.51,0,0,0-2.81,4.56,17,17,0,0,0-.8,4.53,19.08,19.08,0,0,1-.41,3.1,7.11,7.11,0,0,1-1.54,2.59,22.72,22.72,0,0,1-4.33,3.86c-1,.75-2.45,1.43-3.39.46a9.92,9.92,0,0,1-2.3-4.87,15.31,15.31,0,0,1-.24-2.7,14.24,14.24,0,0,0-.52-4A9.48,9.48,0,0,0,46.49,60,3,3,0,0,1,46,58.42,6.15,6.15,0,0,0,44.23,53c-2.43-2.2-6.44-1.6-7.12-1.48a9.27,9.27,0,0,1-4.58-1.3L32.11,50c-2.67-1.25-3.69-3.5-3.32-7.29a9.88,9.88,0,0,1,7.08-8.24c3.42-.88,6.74,0,10.72,1.19a35.4,35.4,0,0,0,6.5.66h.21a6.21,6.21,0,0,0,4.6-1.27,3.58,3.58,0,0,0,1.2-2.33,6.35,6.35,0,0,0-1.58-5c-2.24-2.38-6.2-2.61-9-2.58-.73,0-1.5.07-2.24.12a13.83,13.83,0,0,1-4.76-.16,1.51,1.51,0,0,1-.35-.14c0-.45.19-.71,1.31-1.43a7.52,7.52,0,0,0,1.59-1.27,7.78,7.78,0,0,0,1.44-4.47v-.08c.17-1.37,3.92-1.82,6.45-1.61h.17a3.2,3.2,0,0,0,2.77-1.29c1.24-1.7.5-4.31.28-5A4.75,4.75,0,0,1,56.3,5.26,41,41,0,0,1,83.48,32.85Zm-63-21.64a25.46,25.46,0,0,1,.39,2.6c.06.46.1.87.15,1.14a7,7,0,0,1,0,3.33c-.4,1.12-1.29,1.93-3,2.72l-.84.38A14.26,14.26,0,0,0,11.8,25c-1.27,1.48-3.24,3-4.38,2.95A.87.87,0,0,1,7,27.82,41,41,0,0,1,20.49,11.21ZM4,38.14c1.76.12,5.49.63,5.63,3a31.24,31.24,0,0,0,.08,6c.33,2.85,2.39,4.6,4.2,6.14,1.65,1.4,3.08,2.62,3.22,4.41a7.55,7.55,0,0,1-.68,3,16.53,16.53,0,0,0-.68,2.17l0,.15a9.56,9.56,0,0,0-.27,3.91,4.3,4.3,0,0,1-.45,3.44,2,2,0,0,1-1.67.42A40.7,40.7,0,0,1,4,38.14ZM29.05,82c3.33-1.61,11.16-4.15,18.18,2.87-1,.07-1.92.12-2.89.12A40.7,40.7,0,0,1,29.05,82Zm21.52,2.51C40.13,72.08,27,80,26,80.61a40.76,40.76,0,0,1-10.4-7.51A3.94,3.94,0,0,0,17,72.15c1.67-1.77,1.36-4.64,1.15-5.8a7.42,7.42,0,0,1,.26-2.85l0-.15A14.6,14.6,0,0,1,19,61.54a9.79,9.79,0,0,0,.84-4.13c-.22-2.92-2.32-4.7-4.17-6.27-1.64-1.4-3.06-2.6-3.26-4.38a28.29,28.29,0,0,1-.06-5.52v-.15c-.1-3.19-3-5.26-7.84-5.64A39.75,39.75,0,0,1,6,30.34a3.25,3.25,0,0,0,1.3.3h.14c2.92,0,5.84-3.24,6.41-3.9a11.64,11.64,0,0,1,4.46-2.89l.87-.4a7.8,7.8,0,0,0,4.4-4.28,9.21,9.21,0,0,0,.11-4.69c0-.24-.08-.58-.13-1a15.51,15.51,0,0,0-.75-3.87A40.39,40.39,0,0,1,38.15,3.94a6.72,6.72,0,0,1,.08,1.27v.24c0,1.28,0,2.15-.62,2.63a6.35,6.35,0,0,1-1.8.86l-1.1.43a16.07,16.07,0,0,0-4.82,3c-1.12,1.11-1.43,2.2-.95,3.26a1.36,1.36,0,0,0,2.54-1,2.73,2.73,0,0,1,.32-.37,13.67,13.67,0,0,1,4-2.4c.3-.14.62-.25.93-.37A8.81,8.81,0,0,0,39.3,10.2C41,8.86,41,6.88,40.94,5.43v-.2a8.54,8.54,0,0,0-.09-1.6c1.15-.1,2.31-.16,3.49-.16a40.56,40.56,0,0,1,9.12,1,7.61,7.61,0,0,0-.88,6,.76.76,0,0,0,0,.11,3.92,3.92,0,0,1,.12,2.57.74.74,0,0,1-.58.17c-1.12-.09-8.76-.52-9.32,4h0a1.15,1.15,0,0,0,0,.26A4.83,4.83,0,0,1,42,20.48a6.35,6.35,0,0,1-1,.77c-1.1.71-2.75,1.79-2.54,4a2.83,2.83,0,0,0,2.28,2.47A16.13,16.13,0,0,0,46.5,28c.73,0,1.42-.1,2.07-.11,3.55,0,5.84.52,7,1.72a3.69,3.69,0,0,1,.85,2.92c0,.13-.25,1.24-3,1.1h-.22a33.66,33.66,0,0,1-5.84-.54c-3.45-1-7.75-2.36-12.19-1.22a12.54,12.54,0,0,0-9.11,10.61c-.48,5,1.11,8.25,4.88,10l.41.19c1.89.89,3.67,1.73,6,1.54l.15,0c.91-.18,3.55-.38,4.86.82a3.59,3.59,0,0,1,.86,3.17,5.37,5.37,0,0,0,.8,3.08,7.28,7.28,0,0,1,.44,1,11.93,11.93,0,0,1,.39,3.26,18.7,18.7,0,0,0,.3,3.17,12.45,12.45,0,0,0,3,6.19,4.11,4.11,0,0,0,3,1.32,6.77,6.77,0,0,0,3.9-1.47A24.76,24.76,0,0,0,60,70.34a9.55,9.55,0,0,0,2-3.63,21.23,21.23,0,0,0,.49-3.54,15,15,0,0,1,.64-3.83,14.46,14.46,0,0,1,2.4-3.8c.47-.61,1-1.23,1.4-1.89s.69-1.08,1-1.62l.48-.8a3.22,3.22,0,0,0,.66-2.72,2.39,2.39,0,0,0-1.49-1.44l-1-.37A7.22,7.22,0,0,1,63.52,45c-.19-.22-.38-.42-.57-.62-1.09-1.16-1.35-1.54-1.19-2.3A1.51,1.51,0,0,1,62.53,41c.09,0,.24,0,.74.32a6.38,6.38,0,0,0,4.92.9,3.1,3.1,0,0,0,2-1.63,4,4,0,0,0-.47-3.31,7.54,7.54,0,0,1-.44-1.11,1.49,1.49,0,0,1,.32-1.28,1.37,1.37,0,0,1,1.17-.5A4.8,4.8,0,0,1,74.2,35.9c.88,1.21,2.37.71,4,.18s3.54-1.17,4.82-.5a3.41,3.41,0,0,1,1.5,2.23,1.62,1.62,0,0,0,.17.35A40.77,40.77,0,0,1,50.57,84.52Z"/><path class="cls-2" d="M74.85,56.61a1.38,1.38,0,0,0-.62,1.77,5.54,5.54,0,0,1-1,2.66,5.67,5.67,0,0,1-2,2.24A1.36,1.36,0,0,0,71.52,66l.28,0c1.81-.38,3.36-2.78,3.8-3.51s2-3.53,1.08-5.23a1.36,1.36,0,0,0-1.83-.59Z"/></g></g></svg>