<svg xmlns="http://www.w3.org/2000/svg" viewBox="0 0 97.66 97.38"><defs><style>.cls-1{fill:#f88600;}.cls-2{fill:#f8b600;}.cls-3{fill:#dd00a1;}</style></defs><g id="Layer_2" data-name="Layer 2"><g id="Layer_1-2" data-name="Layer 1"><path class="cls-1" d="M18.61,19.91c.93,0,.47,6,1.4,6s5.27-.62,5.27,0S20,27.19,19.85,27.66s-.62,5-1.24,5.28,0-4-.78-4.51-5.74-.46-5.58-1.24,5-.31,5.27-1.86Z"/><path class="cls-2" d="M53.77,6.35A5.09,5.09,0,0,1,48.7,1.27a1.27,1.27,0,1,0-2.54,0,5.1,5.1,0,0,1-5.08,5.08,1.31,1.31,0,0,0-1.27,1.27,1.3,1.3,0,0,0,1.27,1.26A5.1,5.1,0,0,1,46.16,14a1.27,1.27,0,0,0,2.54,0,5.09,5.09,0,0,1,5.07-5.08,1.27,1.27,0,1,0,0-2.53ZM47.43,9.73a7,7,0,0,0-2.12-2.11A7.26,7.26,0,0,0,47.43,5.5a7.23,7.23,0,0,0,2.11,2.12A8.3,8.3,0,0,0,47.43,9.73Z"/><path class="cls-1" d="M90.46,30.39a5.09,5.09,0,0,1-5.07-5.08,1.27,1.27,0,1,0-2.54,0,5.1,5.1,0,0,1-5.08,5.08,1.27,1.27,0,1,0,0,2.54A5.09,5.09,0,0,1,82.85,38a1.27,1.27,0,1,0,2.54,0,5.08,5.08,0,0,1,5.07-5.07,1.27,1.27,0,0,0,0-2.54Zm-6.34,3.38A7.34,7.34,0,0,0,82,31.66a7.14,7.14,0,0,0,2.12-2.12,7.23,7.23,0,0,0,2.11,2.12A8.46,8.46,0,0,0,84.12,33.77Z"/><path class="cls-3" d="M48.08,31.66A4.11,4.11,0,0,0,44.74,34a18,18,0,0,0-1.92,4.9c-.06.21-.11.44-.17.66a18,18,0,0,0-3.1-4.18A4.09,4.09,0,0,0,35.73,34a4.08,4.08,0,0,0-2.62,3.09,18.08,18.08,0,0,0-.6,5.23c0,.23,0,.46,0,.7L32,42.44a17.91,17.91,0,0,0-4.12-3.28,4.09,4.09,0,0,0-4-.33,4.12,4.12,0,0,0-1.74,3.67,18.47,18.47,0,0,0,.78,5.2c.2.71.43,1.46.69,2.24-.43-.28-.86-.54-1.28-.79a18.51,18.51,0,0,0-4.82-2.1,4.1,4.1,0,0,0-4,.73,4.08,4.08,0,0,0-.73,4,18,18,0,0,0,2.1,4.82A52.7,52.7,0,0,0,20.19,64a46.5,46.5,0,0,0-5.7-2,18.18,18.18,0,0,0-5.21-.78,4.13,4.13,0,0,0-3.67,1.73A4.13,4.13,0,0,0,6,67a18.12,18.12,0,0,0,3.27,4.12C10,71.89,11,72.72,12,73.57c-.78,0-1.53-.08-2.24-.08a18.47,18.47,0,0,0-5.23.59A4.11,4.11,0,0,0,1.43,76.7,4.09,4.09,0,0,0,2.8,80.52,18,18,0,0,0,7,83.65c.63.36,1.32.73,2.05,1.09-.65.13-1.28.28-1.87.43a18.45,18.45,0,0,0-4.9,1.93,3.56,3.56,0,0,0,0,6.67,18.12,18.12,0,0,0,4.9,1.93,62.26,62.26,0,0,0,15.25,1.67A62.26,62.26,0,0,0,37.71,95.7a18.12,18.12,0,0,0,4.9-1.93,4.1,4.1,0,0,0,2.31-3.33A3,3,0,0,0,44.55,89a3.26,3.26,0,0,0,.27-.66,3.43,3.43,0,0,0-.49-2.68c.06-.09.13-.18.19-.28a4.11,4.11,0,0,0-.34-4c-.17-.32-.36-.63-.57-1a3.07,3.07,0,0,0,2.47-2.55l.2-.11a2.45,2.45,0,0,0,.37-.26,2.94,2.94,0,0,0,.71-.09,3,3,0,0,0,1.44-.88h.05a3,3,0,0,0,1.45.89,2.86,2.86,0,0,0,.7.09,2.55,2.55,0,0,0,.38.26,1.36,1.36,0,0,0,.2.11,3,3,0,0,0,.86,1.7,2.93,2.93,0,0,0,1.61.84,11,11,0,0,0-.58,1,4.13,4.13,0,0,0-.33,4,2.75,2.75,0,0,0,.19.28,3.43,3.43,0,0,0-.49,2.68,3.26,3.26,0,0,0,.27.66,3,3,0,0,0-.37,1.44,4.1,4.1,0,0,0,2.31,3.34,18.37,18.37,0,0,0,4.89,1.93A62.84,62.84,0,0,0,75.2,97.38a62.75,62.75,0,0,0,15.25-1.67,18.45,18.45,0,0,0,4.9-1.93,3.56,3.56,0,0,0,0-6.67,18.12,18.12,0,0,0-4.9-1.93c-.59-.15-1.22-.3-1.87-.43.73-.36,1.41-.73,2-1.09a18,18,0,0,0,4.23-3.13,3.56,3.56,0,0,0-1.73-6.44,18.36,18.36,0,0,0-5.22-.6q-1.08,0-2.25.09c1-.85,2-1.69,2.77-2.5A18.1,18.1,0,0,0,91.71,67a3.57,3.57,0,0,0-3.34-5.78,18.12,18.12,0,0,0-5.2.78,48.06,48.06,0,0,0-5.7,2,52.89,52.89,0,0,0,5.36-7.37,18.51,18.51,0,0,0,2.1-4.82,3.56,3.56,0,0,0-4.72-4.72,18,18,0,0,0-4.82,2.1c-.42.25-.85.51-1.29.79.27-.78.5-1.53.69-2.24a18.13,18.13,0,0,0,.78-5.21,3.56,3.56,0,0,0-5.77-3.33,17.91,17.91,0,0,0-4.12,3.28l-.55.56c0-.24,0-.47,0-.7a17.77,17.77,0,0,0-.59-5.23A4.09,4.09,0,0,0,61.92,34a4.1,4.1,0,0,0-3.82,1.36A18.27,18.27,0,0,0,55,39.59c-.35.61-.7,1.26-1,1.95-.18-.94-.38-1.84-.6-2.67A18.23,18.23,0,0,0,51.41,34a4.1,4.1,0,0,0-3.33-2.31Zm0,2.77c.05,0,.44.13,1,1a16.36,16.36,0,0,1,1.6,4.14,47.36,47.36,0,0,1,1.18,6.79,76.52,76.52,0,0,0-2.42,7.52c-.21.79-.41,1.57-.59,2.34-.18-.77-.38-1.55-.59-2.34a72,72,0,0,0-3.56-10.29c.23-1.48.51-2.83.82-4a16,16,0,0,1,1.6-4.14c.54-.87.93-1,1-1ZM36.45,36.66s.45,0,1.21.71A16.24,16.24,0,0,1,40.27,41c.51.9,1,1.92,1.54,3a74.6,74.6,0,0,0-.66,10.13V55a1.62,1.62,0,0,1-.1-.18,74.74,74.74,0,0,0-5.5-8.25c-.17-1.56-.26-3-.27-4.27a16.38,16.38,0,0,1,.47-4.41c.3-1,.64-1.21.69-1.22Zm24.76,0s.39.24.69,1.22a16,16,0,0,1,.47,4.41,39.91,39.91,0,0,1-.27,4.27,74.73,74.73,0,0,0-5.49,8.25c-.6,1-1.16,2.06-1.69,3.07.06-1.22.09-2.48.09-3.76,0-2.59-.12-5.07-.34-7.38A45.25,45.25,0,0,1,57.39,41,16.1,16.1,0,0,1,60,37.37c.75-.7,1.16-.72,1.21-.71Zm-35.9,4.55a2.58,2.58,0,0,1,1.25.39A16.52,16.52,0,0,1,30,44.39a40.44,40.44,0,0,1,2.88,3.28,74.41,74.41,0,0,0,2,9.8c.25.92.51,1.83.78,2.71-.46-.47-.92-1-1.39-1.42a74,74,0,0,0-6.57-5.87A45.78,45.78,0,0,1,25.54,47a15.62,15.62,0,0,1-.68-4.38c0-1,.3-1.33.34-1.36a.54.54,0,0,1,.11,0Zm46.94,0c.12,0,.19,0,.2,0s.32.33.35,1.36A15.67,15.67,0,0,1,72.12,47,47.33,47.33,0,0,1,70,52.89a74,74,0,0,0-6.57,5.87c-.47.47-.94,1-1.39,1.42.27-.89.53-1.79.78-2.71a74.54,74.54,0,0,0,2-9.81,42,42,0,0,1,2.88-3.27A16.52,16.52,0,0,1,71.1,41.6a2.9,2.9,0,0,1,1.15-.39Zm-28.2,8.43c.54,1.57,1.05,3.23,1.51,5a70.77,70.77,0,0,1,1.87,9.32c-.19,1.59-.3,3.08-.34,4.45a51.12,51.12,0,0,0-2.87-7.48c-.19-2.12-.3-4.4-.3-6.77C43.92,52.58,44,51.08,44.05,49.64Zm-28.11,0a4.33,4.33,0,0,1,.88.11,16,16,0,0,1,4.05,1.8,41.53,41.53,0,0,1,4.54,3.1A77.1,77.1,0,0,0,29,61.74a62.47,62.47,0,0,0,9.08,12.38,18.38,18.38,0,0,0,4.11,3.28l.6.28a4.14,4.14,0,0,1-1-.11c-.26-.07-.54-.15-.85-.26a.24.24,0,0,1-.1-.1,62.47,62.47,0,0,0-12.38-9.07l-1.34-.76c-.26-.25-.53-.51-.79-.78a59.76,59.76,0,0,1-9.17-11.4,16.26,16.26,0,0,1-1.8-4.06c-.23-1,0-1.36,0-1.4a.87.87,0,0,1,.53-.11Zm65.77,0c.36,0,.51.07.53.1s.22.4,0,1.41a15.91,15.91,0,0,1-1.79,4.05,60.16,60.16,0,0,1-9.17,11.4l-.8.79-1.34.75a62.37,62.37,0,0,0-12.37,9.08l-.1.1a8.41,8.41,0,0,1-.85.25,3.37,3.37,0,0,1-1,.12l.59-.29a17.91,17.91,0,0,0,4.12-3.28,62.37,62.37,0,0,0,9.07-12.37,77.1,77.1,0,0,0,3.63-7.09,45.71,45.71,0,0,1,4.54-3.1,15.91,15.91,0,0,1,4-1.79,4,4,0,0,1,.88-.13ZM36.58,52.82c.7,1.07,1.39,2.2,2.07,3.38,1.07,1.85,2,3.67,2.85,5.43a50.69,50.69,0,0,0,1.2,7.25c-.6-.89-1.26-1.82-2-2.77a70.79,70.79,0,0,1-3.2-9.36C37.17,55.41,36.85,54.1,36.58,52.82Zm24.5,0c-.28,1.27-.59,2.59-.95,3.92a71,71,0,0,1-3.19,9.37,45.5,45.5,0,0,0-3.13,4.61,25.12,25.12,0,0,0-1.39,2.72,12.93,12.93,0,0,1,.21-1.77c.26-.71.49-1.48.71-2.3s.34-1.38.49-2.11A65.44,65.44,0,0,1,59,56.19c.68-1.17,1.37-2.3,2.07-3.37Zm-8.84,1.26v0a66.13,66.13,0,0,1-1.09,12.4c-.22.64-.41,1.26-.59,1.86,0-1.37-.14-2.86-.33-4.45a71.22,71.22,0,0,1,1.87-9.33c0-.17.09-.34.14-.51ZM30.88,59.35c.46.44.93.9,1.39,1.36h0a73.14,73.14,0,0,1,6,6.82,41.69,41.69,0,0,0,2.1,4.23c.33.6.67,1.15,1,1.66q-.65-.56-1.35-1.26a60.27,60.27,0,0,1-8.64-11.81l-.56-1Zm35.9,0c-.19.33-.37.67-.57,1a60.16,60.16,0,0,1-8.64,11.81c-.46.46-.91.88-1.34,1.25q.51-.76,1-1.65a43.9,43.9,0,0,0,2.1-4.23,71.54,71.54,0,0,1,6-6.82h0c.47-.47.93-.92,1.4-1.36Zm21.09,4.59h.41c1,0,1.33.31,1.36.35s.11.45-.38,1.36a16.09,16.09,0,0,1-2.78,3.45,49.23,49.23,0,0,1-6.23,5.09c-2.37.39-4.9.93-7.51,1.63a62,62,0,0,0-14.3,5.56,22.34,22.34,0,0,0-2.78,1.83,3.91,3.91,0,0,1,.26-.58,14.25,14.25,0,0,1,2.28-2.94,24.13,24.13,0,0,0,3-1.53,60,60,0,0,0,10.87-8.53,57.21,57.21,0,0,1,11.78-5,17.66,17.66,0,0,1,4-.69Zm-78.49,0a16.55,16.55,0,0,1,4.38.69,56.77,56.77,0,0,1,11.78,5A60.69,60.69,0,0,0,36.4,78.16a22.8,22.8,0,0,0,3.06,1.52,14.91,14.91,0,0,1,2.28,2.95,4.37,4.37,0,0,1,.26.57,23.11,23.11,0,0,0-2.78-1.82,62.64,62.64,0,0,0-14.3-5.57,75,75,0,0,0-7.51-1.62,48.53,48.53,0,0,1-6.23-5.09,16.52,16.52,0,0,1-2.79-3.45c-.48-.91-.4-1.31-.37-1.36s.33-.31,1.36-.35Zm.36,12.31a46,46,0,0,1,6.61.58C18,78,19.73,79.06,21.6,80.14a75.39,75.39,0,0,0,7,3.59c-1.95-.15-4-.23-6.15-.23a74.52,74.52,0,0,0-8.31.44,46.9,46.9,0,0,1-5.75-2.7,16.29,16.29,0,0,1-3.58-2.62c-.7-.75-.73-1.15-.71-1.21s.23-.38,1.22-.68a15.86,15.86,0,0,1,4.41-.48Zm78.18,0a16.36,16.36,0,0,1,4.41.48c1,.29,1.21.63,1.22.68s0,.46-.71,1.21a16.4,16.4,0,0,1-3.59,2.62,45.34,45.34,0,0,1-5.74,2.69,77.1,77.1,0,0,0-8.31-.43c-2.14,0-4.2.08-6.15.23,2.24-1,4.6-2.21,7-3.59,1.86-1.08,3.62-2.19,5.25-3.31a45.89,45.89,0,0,1,6.61-.58ZM24.46,78.56a59.9,59.9,0,0,1,13.38,5.22l.55.32c-.62-.11-1.29-.26-2-.46A57.54,57.54,0,0,1,24.46,78.56Zm48.74,0a57.37,57.37,0,0,1-11.92,5.08c-.72.2-1.39.35-2,.46l.54-.32A60,60,0,0,1,73.2,78.56ZM22.46,86.27A60.24,60.24,0,0,1,37,87.85a22.11,22.11,0,0,1,2.36.75,20.21,20.21,0,0,1-2.86.16,59.37,59.37,0,0,1-14.46-2.24l-.89-.24Zm52.74,0h1.3l-.89.24a59.86,59.86,0,0,1-14.46,2.24,22,22,0,0,1-2.87-.16,23,23,0,0,1,2.37-.76A60.24,60.24,0,0,1,75.2,86.26Zm-61.41.5a73.51,73.51,0,0,0,7.54,2.43,62.65,62.65,0,0,0,15.16,2.34,18.44,18.44,0,0,0,5.23-.6l.08,0a3.87,3.87,0,0,1-.66.49A15.75,15.75,0,0,1,37,93a60.24,60.24,0,0,1-14.55,1.58A60.24,60.24,0,0,1,7.91,93a15.75,15.75,0,0,1-4.13-1.6c-.88-.54-1-.93-1-1s.13-.44,1-1a16.11,16.11,0,0,1,4.13-1.6,43.08,43.08,0,0,1,5.88-1.07Zm70.08,0a44.08,44.08,0,0,1,5.87,1.08,15.7,15.7,0,0,1,4.14,1.6c.88.54,1,.92,1,1s-.12.44-1,1A16.06,16.06,0,0,1,89.74,93,60.09,60.09,0,0,1,75.2,94.59,60.24,60.24,0,0,1,60.65,93a16.36,16.36,0,0,1-4.14-1.6,4.31,4.31,0,0,1-.65-.49s0,0,.08,0a18.39,18.39,0,0,0,5.22.59,62.58,62.58,0,0,0,15.17-2.33c2.7-.73,5.23-1.55,7.54-2.43Z"/></g></g></svg>