<svg xmlns="http://www.w3.org/2000/svg" viewBox="0 0 49.39 83.05"><defs><style>.cls-1{fill:#f8b600;}.cls-2{fill:#f88600;fill-rule:evenodd;}.cls-3{fill:#dd00a1;}</style></defs><g id="Layer_2" data-name="Layer 2"><g id="Layer_1-2" data-name="Layer 1"><path class="cls-1" d="M25.45,7.88a7.22,7.22,0,0,1-7.2-7.2A.7.7,0,0,0,17.57,0a.69.69,0,0,0-.67.68,7.23,7.23,0,0,1-7.21,7.2A.7.7,0,0,0,9,8.56a.69.69,0,0,0,.68.67,7.23,7.23,0,0,1,7.21,7.21.68.68,0,0,0,.67.67.69.69,0,0,0,.68-.67,7.22,7.22,0,0,1,7.2-7.21.69.69,0,0,0,.68-.67A.7.7,0,0,0,25.45,7.88Zm-7.88,5.23A8.58,8.58,0,0,0,13,8.56,8.65,8.65,0,0,0,17.57,4a8.69,8.69,0,0,0,4.55,4.55A8.62,8.62,0,0,0,17.57,13.11Z"/><path class="cls-1" d="M30.49,16.35a2.7,2.7,0,0,1,2.7,2.7.69.69,0,0,0,.68.67.68.68,0,0,0,.67-.67,2.71,2.71,0,0,1,2.7-2.7.68.68,0,1,0,0-1.36,2.71,2.71,0,0,1-2.7-2.7.68.68,0,0,0-.67-.67.69.69,0,0,0-.68.67,2.7,2.7,0,0,1-2.7,2.7.68.68,0,1,0,0,1.36Zm3.38-1.81A3.77,3.77,0,0,0,35,15.67a3.77,3.77,0,0,0-1.12,1.13,3.92,3.92,0,0,0-1.13-1.13A4.66,4.66,0,0,0,33.87,14.54Z"/><path class="cls-1" d="M42,27.11a2.72,2.72,0,0,1,2.7,2.71.68.68,0,0,0,.67.67.69.69,0,0,0,.68-.67,2.72,2.72,0,0,1,2.7-2.71.69.69,0,0,0,.68-.67.7.7,0,0,0-.68-.68,2.71,2.71,0,0,1-2.7-2.7.69.69,0,0,0-.68-.67.68.68,0,0,0-.67.67,2.71,2.71,0,0,1-2.7,2.7.7.7,0,0,0-.68.68A.69.69,0,0,0,42,27.11Zm3.37-1.8a3.92,3.92,0,0,0,1.13,1.13,3.77,3.77,0,0,0-1.13,1.12,3.74,3.74,0,0,0-1.12-1.12A4.45,4.45,0,0,0,45.33,25.31Z"/><path class="cls-1" d="M7.43,23.81a2.71,2.71,0,0,1-2.7-2.7.7.7,0,0,0-.68-.68.69.69,0,0,0-.67.68,2.71,2.71,0,0,1-2.7,2.7.68.68,0,1,0,0,1.35,2.71,2.71,0,0,1,2.7,2.7.69.69,0,0,0,.67.68.7.7,0,0,0,.68-.68,2.71,2.71,0,0,1,2.7-2.7.68.68,0,1,0,0-1.35Z"/><path class="cls-2" d="M25.15,17.11a1,1,0,0,0-.91,1v7.34a1,1,0,1,0,1.91.07h0V18.11a1,1,0,0,0-1-1Z"/><path class="cls-2" d="M13.08,20.94a.92.92,0,0,0-.92.91.83.83,0,0,0,.31.69l5.27,5.12a1,1,0,0,0,1.38,0,1,1,0,0,0,0-1.37h0l-5.28-5.13a1.47,1.47,0,0,0-.76-.22Z"/><path class="cls-2" d="M37.15,20.94a.91.91,0,0,0-.68.3l-5.2,5.12a1.07,1.07,0,0,0-.08,1.38,1.05,1.05,0,0,0,1.38.07h0l5.27-5.12a1,1,0,0,0,0-1.37.66.66,0,0,0-.69-.38Z"/><path class="cls-2" d="M9.94,33.55a1,1,0,1,0-.07,1.91H17.2a1,1,0,1,0,.08-1.91H9.94Z"/><path class="cls-2" d="M33,33.55A1,1,0,1,0,33,35.46h7.34a1,1,0,1,0,.07-1.91H33Z"/><path class="cls-3" d="M48.18,72.93a2.31,2.31,0,0,0-1.93-1.2H44.91v-.07A21.88,21.88,0,0,1,45,68.93a2,2,0,0,1,.34-.93l.07-.14a12,12,0,0,0,1.07-3c.5-2,.56-5.76.56-9.21S47,49.11,47,49.11a4,4,0,0,0-1.09-3,4.43,4.43,0,0,0-3.21-1.38,4.32,4.32,0,0,0-2.36.7,4.28,4.28,0,0,0-3.54-2,4,4,0,0,0-2.3.7,4.25,4.25,0,0,0-3.54-2,3.93,3.93,0,0,0-1.54.32V32.52a4.57,4.57,0,0,0-9.14-.07l.06,21.43-6.27-6a4.12,4.12,0,0,0-2.87-1.16,3.92,3.92,0,0,0-2.79,1.16L8,48.32a3.7,3.7,0,0,0-1,2.9,4.87,4.87,0,0,0,1.13,2.65l11.83,15V69l.1.1,0,0a.46.46,0,0,1,0,.13v2.35h-1.4a2.16,2.16,0,0,0-1.93,1.21,4,4,0,0,0-.54,1.94V79.9a3.35,3.35,0,0,0,.54,1.94,2.3,2.3,0,0,0,1.93,1.21H46.25a2.17,2.17,0,0,0,1.93-1.2,4,4,0,0,0,.54-1.95v-5A3.41,3.41,0,0,0,48.18,72.93Zm-35.95-23,7.5,7.22a1.09,1.09,0,0,0,.17.24,2,2,0,0,0,1.44.69,1.28,1.28,0,0,0,1-.49,1.88,1.88,0,0,0,.39-.6,2,2,0,0,0,.15-.67,4.27,4.27,0,0,0,.08-.78l-.07-23a1.88,1.88,0,0,1,3.75-.07V50.91a1.35,1.35,0,1,0,2.7.07V46.5a1.55,1.55,0,1,1,3.07,0v5.63a1.35,1.35,0,1,0,2.7.07V47.79a1.65,1.65,0,0,1,1.54-1.74,1.59,1.59,0,0,1,1.53,1.74v5.57a1.35,1.35,0,0,0,2.7.06V49.08a1.66,1.66,0,0,1,1.61-1.74,1.7,1.7,0,0,1,1.25.56A1.37,1.37,0,0,1,44.12,49v.15s.07,3.09.07,6.51a50.68,50.68,0,0,1-.53,8.56,13.15,13.15,0,0,1-.79,2.35l-.07.16c0,.1-.09.2-.14.31a4.84,4.84,0,0,0-.5,1.49A18.55,18.55,0,0,0,42,71.76l-19.36,0V69.31a2.26,2.26,0,0,0-.11-.64l0-.16a1.94,1.94,0,0,0-.3-.63,1,1,0,0,1,0-.2v-.17l-12-15.22a1.88,1.88,0,0,1-.5-1.24.74.74,0,0,1,.27-.73l.4-.41A1.39,1.39,0,0,1,12.23,49.92ZM46,74.81V79.9a1.91,1.91,0,0,1-.05.45H19a1.24,1.24,0,0,1-.09-.45v-5a2,2,0,0,1,0-.46l.06-.06H46A1.15,1.15,0,0,1,46,74.81Z"/></g></g></svg>