<svg xmlns="http://www.w3.org/2000/svg" viewBox="0 0 84.59 98.24"><defs><style>.cls-1{fill:#f8b600;}.cls-2{fill:#f88600;}.cls-3{fill:#dd00a1;}</style></defs><g id="Layer_2" data-name="Layer 2"><g id="Layer_1-2" data-name="Layer 1"><path class="cls-1" d="M61.54,22a5.09,5.09,0,0,1-5.07-5.08,1.27,1.27,0,1,0-2.54,0A5.1,5.1,0,0,1,48.85,22a1.27,1.27,0,0,0,0,2.54,5.09,5.09,0,0,1,5.08,5.07,1.27,1.27,0,1,0,2.54,0,5.08,5.08,0,0,1,5.07-5.07,1.27,1.27,0,1,0,0-2.54ZM55.2,25.33a7.11,7.11,0,0,0-2.12-2.11A7.26,7.26,0,0,0,55.2,21.1a7.23,7.23,0,0,0,2.11,2.12A8.46,8.46,0,0,0,55.2,25.33Z"/><path class="cls-2" d="M7.34,29.73c.79,0,.39,5.11,1.18,5.11s4.47-.52,4.47,0-4.47,1-4.6,1.45-.53,4.2-1.05,4.46,0-3.41-.66-3.81-4.86-.39-4.73-1,4.21-.26,4.47-1.57S7.34,29.73,7.34,29.73Z"/><path class="cls-2" d="M35.46,0c.79,0,.4,5.11,1.18,5.11s4.47-.52,4.47,0-4.47,1-4.6,1.45-.52,4.2-1,4.46,0-3.41-.65-3.81-4.86-.39-4.73-1,4.2-.26,4.46-1.57S35.46,0,35.46,0Z"/><circle class="cls-1" cx="28.31" cy="44.52" r="8.42"/><path class="cls-3" d="M81.25,64.53A2,2,0,0,0,84,61.76l-7.57-7.58a2,2,0,0,0-2.77,0L66.1,61.76a2,2,0,1,0,2.76,2.76l4.4-4.39V94.32H53V80.11a2,2,0,1,0-3.91,0V94.32H11.56V85.68a2,2,0,0,0-3.92,0v8.64H2.21a2,2,0,0,0,0,3.92H82.63a2,2,0,1,0,0-3.92H77.17V60.44Z"/><path class="cls-3" d="M9.6,81.47a9.59,9.59,0,0,0,6.9-16.26l7.72-9.06a9.53,9.53,0,0,0,11.64-.21L42.54,62a9.6,9.6,0,1,0,15.89-1.64l12.6-13A9.48,9.48,0,0,0,74.5,48a9.61,9.61,0,1,0-6.81-2.84L55.36,57.92A9.55,9.55,0,0,0,45,59l-6.67-6.05a9.6,9.6,0,1,0-16.78.27L13.25,63A9.6,9.6,0,1,0,9.6,81.47ZM74.5,32.69a5.69,5.69,0,1,1-5.69,5.69A5.69,5.69,0,0,1,74.5,32.69ZM56.72,66.48A5.69,5.69,0,1,1,51,60.79,5.69,5.69,0,0,1,56.72,66.48ZM29.9,42.74a5.69,5.69,0,1,1-5.68,5.69A5.69,5.69,0,0,1,29.9,42.74ZM9.6,66.18a5.69,5.69,0,1,1-5.69,5.69A5.69,5.69,0,0,1,9.6,66.18Z"/><path class="cls-1" d="M29.9,66.54a2,2,0,0,0,2-2V63.8a2,2,0,1,0-3.91,0v.78A2,2,0,0,0,29.9,66.54Z"/><path class="cls-1" d="M28,73.28a2,2,0,1,0,3.91,0V71.83a2,2,0,1,0-3.91,0Z"/><path class="cls-1" d="M28,82a2,2,0,0,0,3.91,0V80.54a2,2,0,1,0-3.91,0Z"/><path class="cls-1" d="M28,90a2,2,0,1,0,3.91,0v-.78a2,2,0,1,0-3.91,0Z"/></g></g></svg>