<svg width="174" height="303" viewBox="0 0 174 303" fill="none" xmlns="http://www.w3.org/2000/svg">
<g clip-path="url(#clip0_2_368)">
<path d="M72.7039 192.138C75.1166 189.262 67.4825 192.318 66.4022 191.168C66.4022 191.168 62.5131 192.066 56.6075 192.21C50.6298 192.354 34.7134 187.321 30.7884 179.197C26.8273 170.965 23.5143 154.286 26.6832 142.926C29.8521 131.567 36.5139 123.479 36.5139 123.479C36.5139 123.479 16.8165 99.2143 9.72254 78.6165C2.62858 58.0187 -6.58996 20.3459 6.87776 15.7087C20.3455 11.0715 28.4837 46.4436 32.7689 69.7375C37.0541 93.0314 45.3004 115.139 45.3004 115.139C45.3004 115.139 52.7904 109.855 62.4051 106.907C72.0197 103.995 78.8256 103.744 78.8256 103.744C78.8256 103.744 73.7842 70.4205 82.2826 46.3358C90.7809 22.2511 99.7114 -2.69637 111.379 0.215366C123.046 3.1271 116.492 27.6432 111.018 41.0156C105.545 54.388 95.3182 75.0218 92.8335 85.087C90.3488 95.1882 89.4125 105.541 89.4125 105.541C89.4125 105.541 105.509 108.093 116.312 120.064C127.151 132.034 132.841 149.145 131.328 157.485C129.816 165.861 121.857 174.057 116.816 175.782C112.531 177.22 95.6422 187.07 95.6422 187.07L72.7039 192.138Z" fill="white"/>
<path d="M81.4545 103.313C81.4545 103.313 84.0472 71.8227 89.1606 53.0223C94.274 34.2218 103.565 18.2612 108.282 19.5194C112.999 20.7775 105.329 39.4342 98.6672 57.2281C91.9694 75.022 86.1358 104.607 86.1358 104.607L81.4545 103.313Z" fill="#DD00A1"/>
<path d="M39.1789 120.891L41.5555 117.548C41.5555 117.548 32.8411 89.3291 28.2318 71.9306C23.6226 54.5321 18.2571 32.8199 12.5675 34.7251C6.87795 36.6303 7.70618 54.3883 16.7807 77.2148C25.8552 100.041 39.1789 120.891 39.1789 120.891Z" fill="#DD00A1"/>
<path d="M45.3005 184.805C48.94 184.805 51.8903 181.86 51.8903 178.227C51.8903 174.594 48.94 171.648 45.3005 171.648C41.6611 171.648 38.7107 174.594 38.7107 178.227C38.7107 181.86 41.6611 184.805 45.3005 184.805Z" fill="#F9D8D2"/>
<path d="M120.093 163.057C123.733 163.057 126.683 160.112 126.683 156.479C126.683 152.846 123.733 149.9 120.093 149.9C116.454 149.9 113.503 152.846 113.503 156.479C113.503 160.112 116.454 163.057 120.093 163.057Z" fill="#F9D8D2"/>
<path d="M93.0497 163.776C92.7256 163.704 92.3655 163.92 92.2934 164.243C92.2934 164.279 91.3572 168.054 88.6925 169.024C86.3878 169.887 83.8311 168.557 83.1469 168.162L81.7425 163.345C83.2189 161.871 85.1995 158.096 84.9114 157.09C84.5513 155.868 82.2107 154.034 79.0058 154.969C75.8009 155.903 74.0724 158.671 74.5766 160.469C75.0087 161.979 79.3299 163.452 80.5542 163.812L81.9226 168.557C81.6345 169.204 80.5542 171.397 78.3216 172.044C75.7289 172.799 72.7401 169.851 72.704 169.815C72.452 169.563 72.0559 169.563 71.8038 169.815C71.5517 170.067 71.5517 170.462 71.8038 170.714C71.9478 170.858 75.3328 174.237 78.6817 173.266C81.0944 172.583 82.3907 170.57 82.8949 169.492C84.0112 170.067 86.3878 171.037 88.7645 170.354C88.9085 170.318 89.0166 170.282 89.1606 170.211C92.4735 168.988 93.5178 164.675 93.5538 164.495C93.5898 164.171 93.3737 163.848 93.0497 163.776Z" fill="#10110E"/>
<path d="M36.5501 123.479C36.5501 123.479 20.8498 103.349 15.6283 91.9173C10.4069 80.486 2.91684 61.0385 1.47644 47.0909C0.0360477 33.1434 0.180088 27.8232 0.180088 27.8232C0.180088 27.8232 5.00542 59.9601 10.4789 73.009C15.9524 86.0578 36.5501 123.479 36.5501 123.479Z" fill="#E5E5E5"/>
<path d="M78.8258 103.78C78.8258 103.78 75.1888 67.4371 80.8063 51.0811C86.4239 34.7251 93.3378 14.9181 98.0551 9.02274C102.808 3.12738 102.808 3.12738 102.808 3.12738C102.808 3.12738 86.2078 35.1564 82.9669 58.4503C79.726 81.7082 78.8258 103.78 78.8258 103.78Z" fill="#E5E5E5"/>
<path d="M52.2144 153.926C49.4776 154.717 47.8932 157.593 48.7214 160.289C49.5136 163.021 52.3944 164.603 55.0952 163.776C57.8319 162.985 59.4164 160.109 58.5881 157.413C57.7959 154.681 54.9151 153.136 52.2144 153.926ZM54.9511 158.096C54.1949 158.312 53.4387 157.881 53.2227 157.162C53.0066 156.407 53.4387 155.652 54.1589 155.436C54.9151 155.221 55.6713 155.652 55.8874 156.371C56.1035 157.09 55.7074 157.881 54.9511 158.096Z" fill="#10110E"/>
<path d="M100.936 139.727C98.1991 140.518 96.6146 143.394 97.4429 146.09C98.2351 148.822 101.116 150.404 103.817 149.577C106.553 148.786 108.138 145.91 107.31 143.214C106.553 140.518 103.673 138.936 100.936 139.727ZM103.709 143.897C102.952 144.113 102.196 143.681 101.98 142.962C101.764 142.208 102.196 141.453 102.916 141.237C103.673 141.021 104.429 141.453 104.645 142.172C104.861 142.927 104.429 143.681 103.709 143.897Z" fill="#10110E"/>
<path opacity="0.2" d="M89.1584 186.438C114.551 179.05 130.81 158.244 125.473 139.967C120.137 121.689 95.2261 112.861 69.8334 120.249C44.4408 127.637 28.182 148.444 33.5184 166.721C38.8549 184.999 63.7657 193.826 89.1584 186.438Z" fill="#8ACCCE"/>
<path d="M129.816 118.77L123.442 96.878C126.755 94.865 128.556 91.1264 127.511 87.6036C126.287 83.3978 121.354 81.0252 116.672 82.3912C111.991 83.7572 109.11 88.3945 110.335 92.6003C111.343 96.1231 114.872 98.28 118.761 98.2081L124.991 119.525L124.378 119.705C111.379 98.963 87.9003 90.5872 62.7294 97.9205C37.5584 105.254 22.2182 124.773 22.4343 149.361L20.2377 150.008C15.0882 151.518 11.9554 156.515 13.3238 161.152L18.2571 177.975C19.6255 182.612 24.955 185.165 30.1044 183.655L33.0572 182.792C37.4144 188.364 42.9599 192.857 49.6218 195.949L48.1094 198.357L46.4889 200.946C45.6967 202.24 45.9848 203.821 47.2451 204.684C60.1367 213.419 77.7455 215.612 95.4264 210.472C113.107 205.331 126.791 194.187 132.949 179.773C133.561 178.371 132.949 176.897 131.58 176.214L126.251 173.661C130.104 167.658 132.481 160.72 133.129 153.675L136.406 152.704C141.555 151.194 144.688 146.198 143.32 141.561L138.386 124.737C137.27 121.142 133.741 118.842 129.816 118.77ZM69.6793 121.969C92.9777 115.175 116.348 124.989 121.858 143.789C127.799 164.135 109.182 179.449 88.2604 185.524C67.3387 191.599 43.3921 188.687 37.4504 168.341C31.9049 149.541 46.3809 128.727 69.6793 121.969Z" fill="white"/>
<path d="M141.123 140.698L131.688 143.43C131.256 141.956 131.04 140.374 130.572 138.685C128.664 132.106 126.143 126.175 123.226 120.567L127.259 119.381C131.292 118.195 135.145 120.064 136.19 123.695L141.123 140.698Z" fill="#CECECE"/>
<path d="M136.73 149.577L132.229 150.907C132.192 147.6 131.904 144.149 131.364 140.77L140.403 138.146L141.519 141.956C142.455 145.227 140.403 148.534 136.73 149.577Z" fill="#CECECE"/>
<path d="M16.6006 151.087L20.2016 150.044C20.6697 155.328 21.642 160.864 23.1904 166.22C23.5505 167.479 23.9106 168.737 24.5228 170.103L16.5646 172.439L12.3874 158.168C11.3071 155.149 13.2156 152.093 16.6006 151.087Z" fill="#CECECE"/>
<path d="M68.599 119.453C62.4773 121.25 56.8237 124.018 51.9264 127.397L45.6606 105.937C50.558 102.594 56.1035 100.005 62.4053 98.1721C68.707 96.3388 74.7567 95.5479 80.6983 95.7277L87.0361 117.368C80.9864 117.008 74.7207 117.656 68.599 119.453Z" fill="#F8B600"/>
<path d="M46.0567 110.862L51.0621 127.972C37.0902 138.289 29.9243 154.358 34.2815 169.24C39.899 188.472 62.0091 196.2 89.0526 188.328C116.096 180.456 130.608 162.23 124.954 142.855C120.633 127.972 105.905 118.267 88.5845 117.044L83.5791 99.9335C103.781 101.192 120.129 114.708 126.683 137.175C134.065 162.446 119.625 185.057 90.529 193.504C61.433 201.952 37.0902 190.629 29.6722 165.214C23.1904 142.927 29.7082 122.76 46.0567 110.862Z" fill="#CECECE"/>
<path d="M16.5286 172.439L24.2707 170.175C26.0352 174.848 27.9797 179.449 30.0323 183.727L26.1792 184.841C23.0464 185.74 19.5894 182.792 18.185 178.011L16.5286 172.439Z" fill="#CECECE"/>
<path d="M120.677 96.2256C124.438 95.1313 126.689 91.5095 125.704 88.136C124.719 84.7626 120.872 82.915 117.11 84.0093C113.349 85.1036 111.099 88.7254 112.084 92.0989C113.068 95.4723 116.916 97.3199 120.677 96.2256Z" fill="#CECECE"/>
<path d="M46.777 200.478C46.777 200.478 36.6942 212.089 32.7331 221.615C28.772 231.141 25.7472 243.867 27.1876 253.393C28.6279 262.955 32.6971 263.925 35.3618 264.752C38.0265 265.579 46.5609 265.004 51.8544 253.213C57.1478 241.422 55.7434 242.932 55.7434 242.932C55.7434 242.932 62.8374 263.745 70.8316 276.255C78.8258 288.765 90.601 307.026 103.241 302.209C115.88 297.392 109.146 284.631 108.714 281.252C108.282 277.873 111.235 275.608 113.863 274.853C116.492 274.098 121.39 272.948 124.81 280.03C128.231 287.111 125.351 294.876 138.062 292.144C150.738 289.412 151.206 271.51 151.314 251.523C151.422 231.573 147.029 213.707 147.029 213.707C147.029 213.707 164.781 190.485 169.031 178.227C173.28 165.969 176.953 157.341 170.651 150.547C164.349 143.753 155.887 147.132 149.693 152.668C143.464 158.204 131.328 171.433 131.328 171.433L128.195 175.171L130.824 179.593C130.824 179.593 117.32 203.534 97.695 208.423C78.0696 213.311 55.4193 206.913 55.4193 206.913L46.777 200.478Z" fill="white"/>
<path d="M35.974 215.36C35.974 215.36 33.1652 219.962 32.0849 223.089C31.4727 224.886 29.2041 231.573 29.2041 231.573C29.2041 231.573 35.6139 235.922 38.1706 234.592C40.7273 233.262 41.5915 229.452 42.7798 226.648C44.0402 223.664 45.0125 222.586 44.5803 220.105C44.1122 217.589 35.974 215.36 35.974 215.36Z" fill="#DD00A1"/>
<path d="M131.94 170.426L142.887 159.139C142.887 159.139 149.657 159.606 149.837 161.188C150.017 162.769 145.66 167.802 144.508 168.952C143.356 170.103 141.627 172.511 140.223 172.907C138.818 173.302 131.94 170.426 131.94 170.426Z" fill="#DD00A1"/>
<path d="M120.525 227.043L121.714 231.141L150.341 229.056L149.657 224.958L120.525 227.043Z" fill="black"/>
<path d="M83.507 237.827L84.6953 241.961L60.3886 255.334L58.8402 251.38L83.507 237.827Z" fill="black"/>
<path d="M121.714 231.141L120.309 239.841L101.152 247.318C101.152 247.318 113.251 248.36 120.201 245.628C127.151 242.896 123.514 240.272 126.359 236.857C129.204 233.442 150.306 229.092 150.306 229.092" fill="#CECECE"/>
<path d="M85.5236 226.073L113.503 217.949C113.503 217.949 115.628 218.092 116.636 218.775C117.644 219.458 118.617 220.932 118.617 220.932L123.55 237.863C123.55 237.863 123.694 240.056 123.01 241.171C122.326 242.285 121.029 243.507 121.029 243.507L92.7256 251.739C92.7256 251.739 90.8531 252.099 89.3767 251.236C87.9003 250.409 86.82 248.899 86.82 248.899L81.4545 231.141C81.4545 231.141 81.0224 229.703 82.6788 227.906C83.6871 226.828 85.5236 226.073 85.5236 226.073Z" fill="#F8B600"/>
<path d="M114.764 229.2L90.385 236.282C90.2769 236.318 90.1329 236.246 90.0969 236.138L89.1966 233.082C89.1606 232.975 89.2326 232.831 89.3407 232.795L113.719 225.713C113.827 225.677 113.971 225.749 114.007 225.857L114.908 228.913C114.944 229.02 114.872 229.164 114.764 229.2Z" fill="white"/>
<path d="M104.321 242.716C105.653 242.716 106.734 241.638 106.734 240.308C106.734 238.978 105.653 237.899 104.321 237.899C102.988 237.899 101.908 238.978 101.908 240.308C101.908 241.638 102.988 242.716 104.321 242.716Z" fill="white"/>
<path d="M113.719 239.984C115.052 239.984 116.132 238.906 116.132 237.576C116.132 236.246 115.052 235.167 113.719 235.167C112.387 235.167 111.307 236.246 111.307 237.576C111.307 238.906 112.387 239.984 113.719 239.984Z" fill="white"/>
<path d="M94.6701 245.52C96.0026 245.52 97.0828 244.442 97.0828 243.112C97.0828 241.782 96.0026 240.703 94.6701 240.703C93.3376 240.703 92.2574 241.782 92.2574 243.112C92.2574 244.442 93.3376 245.52 94.6701 245.52Z" fill="white"/>
<path d="M93.6259 206.374C76.125 211.478 58.7683 209.753 45.7327 201.521L49.3697 195.733C61.1809 199.759 75.2248 199.867 90.457 195.446C105.653 191.024 118.401 183.439 126.179 173.733L131.904 176.142C125.351 190.053 111.127 201.269 93.6259 206.374Z" fill="#CECECE"/>
<path d="M99.7835 223.161C99.7835 223.161 87 226.828 86.3518 227.079C85.7036 227.331 83.5791 228.194 83.255 229.236C82.8949 230.279 82.8229 230.746 82.9669 231.393C83.1109 232.04 86.0637 242.033 86.0637 242.033C86.0637 242.033 83.7951 232.256 84.9834 230.063C86.3518 227.475 99.7835 223.161 99.7835 223.161Z" fill="#D69A03"/>
<path d="M118.329 95.2244L126.251 122.257L121.57 94.2898L118.329 95.2244Z" fill="#CECECE"/>
<path d="M83.6151 243.184L60.3887 255.334C60.3887 255.334 66.0062 269.641 72.9561 279.598C79.9061 289.556 86.2438 297.284 89.2686 299.225C92.2935 301.167 89.1966 297.284 92.9417 292.252C96.6867 287.219 97.3349 286.68 97.3349 286.68C97.3349 286.68 78.2136 272.229 75.5489 264.069C72.8841 255.909 83.6151 243.184 83.6151 243.184Z" fill="#CECECE"/>
<path d="M55.7434 242.932L59.8846 232.328C59.8846 232.328 61.8651 243.112 64.4578 243.831C67.0505 244.586 82.2467 238.51 82.2467 238.51L58.8043 251.416L55.7434 242.932Z" fill="#CECECE"/>
<path d="M44.4362 106.512C44.4362 106.512 31.3286 113.737 26.0352 129.374C20.7417 145.011 22.3982 149.433 22.3982 149.433C22.3982 149.433 24.4867 162.086 28.6279 171.972C32.769 181.857 38.8187 192.821 51.1701 196.308C63.5215 199.795 85.0914 199.795 102.412 191.096C119.733 182.361 120.921 179.737 120.921 179.737C120.921 179.737 79.4739 199.651 60.1366 193.684C40.7992 187.753 37.5223 179.09 34.2814 169.24C31.0405 159.39 29.096 145.946 36.262 138.469C43.428 130.992 50.4499 125.888 50.4499 125.888L44.4362 106.512Z" fill="#CECECE"/>
<path d="M146.993 213.671L144.796 206.158C144.796 206.158 159.092 188.58 165.142 180.132C171.227 171.72 171.839 169.851 171.839 169.851C171.839 169.851 166.258 185.92 159.2 196.272C152.178 206.661 146.993 213.671 146.993 213.671Z" fill="#CECECE"/>
<path d="M116.744 274.278C116.744 274.278 118.725 273.343 120.885 275.285C123.046 277.226 125.783 282.51 125.783 282.51C125.783 282.51 128.087 280.173 132.697 278.843C137.306 277.513 140.403 278.268 140.403 278.268C140.403 278.268 132.265 273.307 127.691 271.115C123.046 268.922 116.744 274.278 116.744 274.278Z" fill="#CECECE"/>
<path d="M33.6693 233.981L29.1681 231.537C29.1681 231.537 26.4313 243.903 26.7914 248.648C27.1515 253.393 27.8357 256.7 27.8357 256.7C27.8357 256.7 28.0878 236.605 33.6693 233.981Z" fill="#CECECE"/>
<path d="M46.777 200.478L35.974 215.36L39.611 216.583L50.1979 202.995L46.777 200.478Z" fill="#CECECE"/>
<path d="M35.974 215.36L33.1652 220.465L29.2041 231.537L33.3452 234.017L39.611 216.583L35.974 215.36Z" fill="#B20088"/>
<path d="M117.32 182.469C117.32 182.469 101.548 193.253 89.8448 195.841C78.1416 198.429 62.1531 198.357 58.2641 197.962C54.375 197.566 52.1424 196.776 52.1424 196.776L49.2616 197.602L48.9375 198.789C48.9375 198.789 57.5439 202.132 70.6875 201.305C83.8671 200.478 95.1382 198.393 104.357 192.965C113.647 187.465 117.32 182.469 117.32 182.469Z" fill="#B20088"/>
</g>
<defs>
<clipPath id="clip0_2_368">
<rect width="174" height="303" fill="white"/>
</clipPath>
</defs>
</svg>
