<svg xmlns="http://www.w3.org/2000/svg" viewBox="0 0 82.2 28.53"><defs><style>.cls-1{fill:#fff;}</style></defs><g id="Layer_2" data-name="Layer 2"><g id="Layer_3" data-name="Layer 3"><path class="cls-1" d="M11.73,6.7H5.91V1.4A1.4,1.4,0,0,0,4.51,0h0a1.4,1.4,0,0,0-1.4,1.4V6.7H1.36A1.36,1.36,0,0,0,0,8.06H0A1.36,1.36,0,0,0,1.36,9.44h1.7V22.11a6.52,6.52,0,0,0,1.55,4.61,5.8,5.8,0,0,0,4.45,1.69,7.88,7.88,0,0,0,3.39-.73,1,1,0,0,0,.55-.89v-.85a1,1,0,0,0-1.45-.89,5.53,5.53,0,0,1-2.49.59,2.93,2.93,0,0,1-2.36-.85A4.19,4.19,0,0,1,5.91,22V9.44h5.82a1.36,1.36,0,0,0,1.35-1.35V8A1.35,1.35,0,0,0,11.73,6.7Z"/><path class="cls-1" d="M26.27,6.23a8.39,8.39,0,0,0-3.33.67,9.05,9.05,0,0,0-2.6,1.72,9.91,9.91,0,0,0-1,1.12V8.11A1.41,1.41,0,0,0,17.9,6.7h0a1.41,1.41,0,0,0-1.41,1.41V26.65a1.41,1.41,0,0,0,1.41,1.41h0a1.41,1.41,0,0,0,1.41-1.41V17a8.46,8.46,0,0,1,.49-2.66,9.7,9.7,0,0,1,1.4-2.64,7.9,7.9,0,0,1,2.17-2A5,5,0,0,1,26.1,9h.19a1,1,0,0,0,1-1V7.23A1,1,0,0,0,26.27,6.23Z"/><path class="cls-1" d="M32.1,6.7h0a1.43,1.43,0,0,0-1.42,1.42V26.67a1.39,1.39,0,0,0,1.39,1.39h.08a1.39,1.39,0,0,0,1.39-1.39V8.12A1.43,1.43,0,0,0,32.1,6.7Z"/><path class="cls-1" d="M54.29,9A8.07,8.07,0,0,0,51.4,7a10,10,0,0,0-3.87-.72,8.87,8.87,0,0,0-6,2.26,8.15,8.15,0,0,0-.72.72V8.1a1.41,1.41,0,0,0-1.41-1.4h0a1.41,1.41,0,0,0-1.41,1.4V26.67a1.4,1.4,0,0,0,1.4,1.39h.06a1.4,1.4,0,0,0,1.4-1.39V16.34a7.78,7.78,0,0,1,.52-2.89,7.61,7.61,0,0,1,1.45-2.35,6.45,6.45,0,0,1,2.1-1.54A6,6,0,0,1,47.43,9a6.89,6.89,0,0,1,2.8.52,5.52,5.52,0,0,1,2,1.4,6,6,0,0,1,1.18,2.21,10.34,10.34,0,0,1,.42,3V26.69a1.37,1.37,0,0,0,1.38,1.37h.1a1.37,1.37,0,0,0,1.37-1.37V16.1a12.6,12.6,0,0,0-.59-4A9,9,0,0,0,54.29,9Z"/><path class="cls-1" d="M81.42,13.09a10.63,10.63,0,0,0-2.27-3.55,11,11,0,0,0-3.51-2.41,11.28,11.28,0,0,0-4.51-.9,11.11,11.11,0,0,0-4.55.92,11,11,0,0,0-3.49,2.46,10.7,10.7,0,0,0-2.24,3.56,11.91,11.91,0,0,0,0,8.53,10.6,10.6,0,0,0,2.27,3.52,10.89,10.89,0,0,0,3.49,2.41,11,11,0,0,0,4.52.9,11.2,11.2,0,0,0,4.55-.9,10.6,10.6,0,0,0,3.5-2.44,10.92,10.92,0,0,0,2.24-3.55,11.83,11.83,0,0,0,.78-4.34A11.6,11.6,0,0,0,81.42,13.09ZM71.17,25.75a8.31,8.31,0,0,1-3.33-.65,8,8,0,0,1-4.32-4.45,8.86,8.86,0,0,1-.6-3.31,9,9,0,0,1,.59-3.24,8,8,0,0,1,1.67-2.65,7.9,7.9,0,0,1,2.58-1.79A8.33,8.33,0,0,1,71.1,9a8.44,8.44,0,0,1,3.32.65A8.16,8.16,0,0,1,77,11.46a8,8,0,0,1,1.7,2.65,8.67,8.67,0,0,1,.61,3.31,9,9,0,0,1-.59,3.24,7.91,7.91,0,0,1-1.67,2.65,7.81,7.81,0,0,1-2.58,1.79A8.33,8.33,0,0,1,71.17,25.75Z"/><circle class="cls-1" cx="32.12" cy="2.16" r="1.62"/></g></g></svg>