<svg xmlns="http://www.w3.org/2000/svg" viewBox="0 0 1364 429"><defs><style>.cls-1{fill:#121259;opacity:0.6;}.cls-2{fill:#003;}.cls-3{fill:#a3b7c5;}.cls-4{fill:#697c8c;}.cls-5,.cls-6,.cls-7{fill:#98c9ea;}.cls-5{opacity:0.5;}.cls-6{opacity:0.8;}.cls-8{fill:#fff;}.cls-9{fill:#dd00a1;}.cls-10{fill:#f88600;}.cls-11{fill:#fefefc;}.cls-12{fill:#a5a5a5;}.cls-13{fill:#58adba;}.cls-14{opacity:0.4;}.cls-15,.cls-16{fill:none;stroke:#fefefc;stroke-linecap:round;stroke-linejoin:round;stroke-width:2px;}.cls-16{stroke-dasharray:1 5.97;}</style></defs><g id="Layer_2" data-name="Layer 2"><g id="Layer_1-2" data-name="Layer 1"><path class="cls-1" d="M154.23,0S9.29,113.32,107.37,132.93,403.22,78.45,452,127.49s-111.43,102.43-98.35,116.6,312.76-52.31,307.31,0-513.27,105.7-552.5,123.14S0,413.46,0,413.46V0Z"/><path class="cls-1" d="M785.19,0S595.58,122,654.42,134s236.48,57.76,197.25,94.81-181.32,49-169.67,78.46,452.57,44.79,486.79,69.75S1364,429,1364,429V0Z"/><path class="cls-2" d="M23.46,71.91c8.46-5.08-6.54,101.34,62.11,111.15s267-22.88,264.81-16.34S181.47,222.29,208.71,243s99.17,30.51,131.86,34.87,204.88-17.44,204.88-17.44-440.26,63.21-455.52,73-67.56,36-66.47,40.32S107.37,291,91,265.88-3.79,88.25,23.46,71.91Z"/><path class="cls-2" d="M874.55,54.47s-118.78,29.43-74.1,59.94,158,88.25,155.83,108.42S823.33,285.5,827.69,295.31s258.27,33.78,275.71,42.5S949.75,296.4,966.09,283.32,1074,240.49,1066.35,214.5,864.74,123.13,858.21,109,886.54,66.46,874.55,54.47Z"/><circle class="cls-3" cx="133.61" cy="211.91" r="25.71"/><circle class="cls-4" cx="149.85" cy="209.2" r="8.12"/><circle class="cls-4" cx="148.62" cy="222" r="2.71"/><circle class="cls-4" cx="119.14" cy="218.31" r="2.83"/><path class="cls-4" d="M116.93,194.59a6,6,0,1,0,6-6h-.11a25.44,25.44,0,0,0-5.16,3.17A6,6,0,0,0,116.93,194.59Z"/><path class="cls-4" d="M126.4,232.2a4.18,4.18,0,0,0-4,2.85,25.6,25.6,0,0,0,8,2.36,4,4,0,0,0,.14-1A4.18,4.18,0,0,0,126.4,232.2Z"/><path class="cls-5" d="M558.48,123.16c1.9,0,.95,12.38,2.86,12.38s10.81-1.27,10.81,0S561.34,138.08,561,139s-1.27,10.17-2.54,10.8,0-8.26-1.59-9.21-11.77-1-11.45-2.55,10.18-.63,10.81-3.81Z"/><path class="cls-6" d="M1097.66,120.36c.93,0,.47,6,1.4,6s5.28-.62,5.28,0-5.28,1.24-5.44,1.71-.62,5-1.24,5.28,0-4-.77-4.51-5.75-.46-5.59-1.24,5-.31,5.28-1.86Z"/><path class="cls-6" d="M1067.56,268.9c.93,0,.46,6,1.39,6s5.28-.62,5.28,0-5.28,1.24-5.43,1.71-.62,5-1.24,5.27,0-4-.78-4.5-5.74-.46-5.59-1.24,5-.31,5.28-1.86Z"/><path class="cls-7" d="M882.42,28.61c.93,0,.46,6,1.4,6s5.27-.62,5.27,0-5.27,1.24-5.43,1.71-.62,5-1.24,5.27,0-4-.78-4.5-5.74-.46-5.59-1.24,5-.31,5.28-1.86Z"/><path class="cls-5" d="M213.8,338.82c1.91,0,.95,12.38,2.86,12.38s10.81-1.28,10.81,0-10.81,2.54-11.13,3.49-1.27,10.18-2.54,10.81,0-8.26-1.59-9.22-11.76-.95-11.44-2.54,10.17-.64,10.8-3.82S213.8,338.82,213.8,338.82Z"/><path class="cls-5" d="M117.77,117.74c.93,0,.46,6,1.39,6s5.28-.62,5.28,0-5.28,1.24-5.43,1.71-.62,5-1.24,5.28,0-4-.78-4.5-5.74-.47-5.59-1.25,5-.31,5.28-1.86Z"/><circle class="cls-8" cx="135.77" cy="293.2" r="2.25"/><circle class="cls-8" cx="203.46" cy="107.54" r="2.71"/><circle class="cls-8" cx="333.77" cy="262.33" r="3.26"/><circle class="cls-8" cx="373.73" cy="152.25" r="2.37"/><path class="cls-8" d="M489.3,77.12v0Z"/><circle class="cls-8" cx="373.73" cy="67.74" r="2.37"/><circle class="cls-8" cx="492.01" cy="193.94" r="2.7"/><circle class="cls-8" cx="663.74" cy="193.94" r="2.7"/><circle class="cls-8" cx="719.98" cy="115.67" r="2.07"/><circle class="cls-8" cx="731.05" cy="56.17" r="1.7"/><circle class="cls-8" cx="623.5" cy="37.17" r="2.04"/><circle class="cls-8" cx="525.38" cy="69.74" r="2"/><circle class="cls-8" cx="602.68" cy="331.81" r="1.63"/><circle class="cls-8" cx="792.96" cy="295.76" r="2.56"/><circle class="cls-8" cx="920.91" cy="295.76" r="2.56"/><circle class="cls-8" cx="1070.98" cy="243.54" r="3.27"/><circle class="cls-8" cx="1067.71" cy="301.59" r="3.27"/><circle class="cls-8" cx="1106.65" cy="171.99" r="2"/><circle class="cls-8" cx="1039.47" cy="66.55" r="1.19"/><circle class="cls-8" cx="992.5" cy="204.29" r="2.43"/><circle class="cls-8" cx="792.96" cy="199.21" r="2.56"/><circle class="cls-8" cx="858.02" cy="367.53" r="1.99"/><circle class="cls-8" cx="687.86" cy="307.51" r="2.65"/><circle class="cls-8" cx="405.53" cy="319.74" r="2.03"/><circle class="cls-8" cx="216.48" cy="176.36" r="2.37"/><circle class="cls-8" cx="297.5" cy="216.65" r="2.15"/><circle class="cls-8" cx="253.67" cy="275.42" r="1.63"/><circle class="cls-8" cx="30.34" cy="208.17" r="1.44"/><circle class="cls-8" cx="144.56" cy="26.55" r="2.04"/><circle class="cls-8" cx="249.17" cy="37.17" r="2.04"/><circle class="cls-8" cx="61.78" cy="68.74" r="1"/><circle class="cls-8" cx="721.01" cy="378.62" r="1.04"/><circle class="cls-8" cx="1165.62" cy="59.34" r="1.46"/><circle class="cls-8" cx="1261.74" cy="159.85" r="5.23"/><circle class="cls-8" cx="1242.62" cy="245.18" r="1.63"/><circle class="cls-8" cx="1241.8" cy="316.9" r="0.82"/><circle class="cls-8" cx="1135.55" cy="272.97" r="2.45"/><circle class="cls-8" cx="1143.9" cy="366.53" r="1"/><circle class="cls-8" cx="1005.08" cy="343.97" r="1.53"/><circle class="cls-8" cx="1090.49" cy="361.86" r="0.97"/><circle class="cls-8" cx="1140.95" cy="322.69" r="2.95"/><circle class="cls-8" cx="1187.76" cy="359.51" r="2.36"/><circle class="cls-8" cx="1247.14" cy="386.89" r="2.89"/><circle class="cls-8" cx="1313.41" cy="313.12" r="2.96"/><circle class="cls-8" cx="1325.17" cy="42.48" r="3.27"/><circle class="cls-8" cx="1278.99" cy="21.64" r="1.23"/><circle class="cls-8" cx="1173.74" cy="102.44" r="1.41"/><circle class="cls-8" cx="1102.12" cy="22.95" r="2.53"/><circle class="cls-8" cx="1005.85" cy="11.38" r="0.77"/><circle class="cls-8" cx="1331" cy="217.06" r="2.56"/><circle class="cls-9" cx="1301.88" cy="205.51" r="1.22"/><circle class="cls-9" cx="539.1" cy="284.07" r="1.3"/><circle class="cls-9" cx="506.42" cy="363.7" r="1.84"/><circle class="cls-9" cx="302.67" cy="83.14" r="3.01"/><circle class="cls-9" cx="236.79" cy="195.29" r="1.35"/><circle class="cls-9" cx="164.98" cy="126.29" r="2.03"/><circle class="cls-9" cx="193.93" cy="53.86" r="4.02"/><circle class="cls-9" cx="56.5" cy="267.02" r="1.44"/><circle class="cls-9" cx="112.59" cy="72.92" r="1.19"/><circle class="cls-9" cx="175.24" cy="318.3" r="1.44"/><circle class="cls-9" cx="117.88" cy="348.07" r="4.1"/><circle class="cls-9" cx="1018.54" cy="254.86" r="1.5"/><circle class="cls-9" cx="1177.18" cy="193.26" r="2.03"/><circle class="cls-10" cx="1097.67" cy="96.09" r="1.35"/><circle class="cls-10" cx="401.99" cy="245.05" r="1.51"/><circle class="cls-10" cx="313.37" cy="320.2" r="2.49"/><circle class="cls-10" cx="326.05" cy="405.01" r="2.09"/><circle class="cls-10" cx="1038.88" cy="29.18" r="0.59"/><circle class="cls-10" cx="1164.89" cy="131.52" r="0.73"/><circle class="cls-10" cx="1196.85" cy="238.64" r="1.63"/><circle class="cls-10" cx="1258.96" cy="272.97" r="2.45"/><circle class="cls-10" cx="1306.49" cy="351.33" r="5.82"/><circle class="cls-10" cx="1218.15" cy="134.02" r="2.5"/><circle class="cls-10" cx="936.74" cy="16.28" r="4.14"/><path class="cls-11" d="M383.44,180.77s-4.47,1.17-7.19.72-5.72-1.28-5.72-1.28a27.05,27.05,0,0,1-1.55,4.73c-.63,1-2.45,3.27-2.45,3.27l10,2.45s-1.1,2.9-2.13,5.36A33.47,33.47,0,0,1,373,199.1a62.69,62.69,0,0,0-4.27,10.45c-.54,2.45-2.45,7.26-2.18,8.26s9.45,5,9.45,5,3.36-4.36,4.54-6.36,2.92-4.81,2.92-4.81l2.89,1.08s-.82,4.45-1,7A37,37,0,0,1,384,226l9.64,2.82s5.09-6.45,6-9.36,5.08-14.07,5.08-14.07l1-1.64,9.9,4.73,2.09-8.81s-3.54-2.36-5.18-3.63-4.9-7.18-4.9-7.18Z"/><circle class="cls-11" cx="381.52" cy="163.04" r="6.64"/><ellipse class="cls-12" cx="400.57" cy="171.22" rx="19.45" ry="20.92" transform="matrix(0.35, -0.94, 0.94, 0.35, 99.5, 486.08)"/><circle class="cls-11" cx="420.55" cy="177.88" r="6.64"/><ellipse class="cls-9" cx="384.04" cy="164.38" rx="9.27" ry="7.98" transform="translate(49.66 414.78) rotate(-60)"/><ellipse class="cls-9" cx="417.28" cy="177.12" rx="9.27" ry="7.98" transform="translate(55.25 449.93) rotate(-60)"/><ellipse class="cls-11" cx="401.15" cy="170.07" rx="20" ry="21.98" transform="translate(100.96 485.87) rotate(-69.43)"/><ellipse class="cls-9" cx="401.12" cy="171.63" rx="14.36" ry="17.19" transform="translate(99.47 486.85) rotate(-69.43)"/><ellipse class="cls-13" cx="401.12" cy="171.63" rx="12.73" ry="15.24" transform="translate(99.47 486.85) rotate(-69.43)"/><path class="cls-9" d="M370.25,180.4s-1.54-4.36-2.54-4.82a1.75,1.75,0,0,0-2.27,1.09c0,.64.18,1.33-.63,1.26s-4.64-2.17-5.36-2-1.27.52-1.18,1.17,1.27,1.37,1.09,1.73-2.73-.18-3.18.55.63,2.45.91,3-1.64.55-1.55,1.27,1.73,3.27,5,4.09a21.51,21.51,0,0,0,6,.64,18.37,18.37,0,0,0,2.64-3.86C369.53,183.3,370.25,180.4,370.25,180.4Z"/><path class="cls-9" d="M417.84,199.74a5.45,5.45,0,0,1,2.71-1.55c1.56-.27,2.47-.36,3,0s.37,1.19,0,1.91-1.36.82-.91,1.36S428,203,428.19,204s-.1,1.9-1,2.09-1.36.36-.54.9,2,1.82,1.6,2.36-2.42.37-3,.64.81,2.09-.09,2.63a5.36,5.36,0,0,1-4.65-.36,36.47,36.47,0,0,1-4.89-3.81S417,200.45,417.84,199.74Z"/><path class="cls-9" d="M366.53,217.81s-2.54,2-3.09,3.72-1.81,4.82,1.55,6.54,8.26-.63,8.81-1a11.61,11.61,0,0,0,2.82-5.1c.72-2.62-5.46-4.7-6.37-4.61S366.53,217.81,366.53,217.81Z"/><path class="cls-9" d="M384,225.08a11,11,0,0,0-.53,6.9c1,3.63,3.55,6.08,6.36,5.81s3.91-3.27,4.18-4.63a23.33,23.33,0,0,0,0-4.46s-2.36-2.9-4.09-3.26A43.82,43.82,0,0,0,384,225.08Z"/><path class="cls-9" d="M374,181.06a20.92,20.92,0,0,1-.52,4.33,36.8,36.8,0,0,1-1.79,4.09l2.31.57s1.3-3.42,1.57-4.5.64-4.06.64-4.06Z"/><path class="cls-9" d="M412.57,196a11.85,11.85,0,0,0-2.09,4.08c-.36,1.91-1.06,5.38-1.06,5.38l1.58.75s.3-5,1-5.95a24.36,24.36,0,0,0,1.88-3.28Z"/><path class="cls-9" d="M374.39,196s1,5.35,2.86,7.81,5.08,5.81,8.72,7.08a23.37,23.37,0,0,0,11.44.54,16.63,16.63,0,0,0,6-2.44l1-2.78s-5.88,3.23-10.27,3.13-10.28-1.54-12.65-4.45-6.11-11.41-6.11-11.41Z"/><ellipse class="cls-9" cx="390.65" cy="198.49" rx="7.82" ry="11.11" transform="translate(67.53 494.47) rotate(-69.43)"/><circle class="cls-11" cx="389.6" cy="193.5" r="1.82"/><circle class="cls-11" cx="394.63" cy="196.02" r="1.82"/><circle class="cls-11" cx="398.27" cy="199.77" r="1.82"/><circle class="cls-11" cx="384.04" cy="194.2" r="1.82"/><path class="cls-10" d="M377.43,190.05s-4.95.33-5.7,2.15.22,3.25,2.66,3.82,4.86,1.09,6.76.63,3.45-1.27,3.73-1.82.23-3-1.71-1.88a9.22,9.22,0,0,1-6.5,1.34c-2.69-.45-3.5-.91-2.28-1.91S377.43,190.05,377.43,190.05Z"/><path class="cls-10" d="M405.67,202s2.36,1.22,2.54,3.47-1.63,3.7-2.54,3.7-5.17-2.36-6.54-4.67-2.18-5.32-1.36-5.5,1.36,0,2.36,2.54,2.36,4.46,4.31,4.68S405.13,203.1,405.67,202Z"/><path class="cls-10" d="M383.44,211.64s-1-4.64-.48-5.41,7.46,2,7.46,2-.64,2.64-1.5,3.46a5.89,5.89,0,0,1-2.59,1.08Z"/><path class="cls-10" d="M387.69,196.82a21,21,0,0,1,3.27.38,5.94,5.94,0,0,1,2.18,1.76l-2.72,5.55-2.73-.44-1.63-.88Z"/><g class="cls-14"><path class="cls-15" d="M365,228.07c-.08.15-.15.3-.22.45"/><path class="cls-16" d="M362.76,234.14c-6.25,25.1,15.3,64.8,20.41,81.94,5.55,18.59,19.52,63.14-46.14,73.7s-114.15-120.63-136.27-171-76.32-35.65-76.32-35.65-17.62,5.55-21.16,23.57,12.11,29.87,15.86,30.89,15.74-2.25,18.88-8.92c1.88-4,.68-8.35-.57-11.15"/><path class="cls-15" d="M136,214.91l-.27-.41"/></g></g></g></svg>