<svg width="442" height="155" viewBox="0 0 442 155" fill="none" xmlns="http://www.w3.org/2000/svg">
<path d="M220.5 70.7729C221.881 70.7729 223 69.6537 223 68.2729C223 66.8922 221.881 65.7729 220.5 65.7729C219.119 65.7729 218 66.8922 218 68.2729C218 69.6537 219.119 70.7729 220.5 70.7729Z" fill="white"/>
<path d="M411.5 11.7729C412.881 11.7729 414 10.6537 414 9.27295C414 7.89223 412.881 6.77295 411.5 6.77295C410.119 6.77295 409 7.89223 409 9.27295C409 10.6537 410.119 11.7729 411.5 11.7729Z" fill="white"/>
<path d="M253.5 53.7729C256.538 53.7729 259 51.0866 259 47.7729C259 44.4592 256.538 41.7729 253.5 41.7729C250.462 41.7729 248 44.4592 248 47.7729C248 51.0866 250.462 53.7729 253.5 53.7729Z" fill="white"/>
<path d="M265 125.773C263.895 125.773 263 124.878 263 123.773C263 122.668 263.895 121.773 265 121.773C266.105 121.773 267 122.668 267 123.773C267 124.878 266.105 125.773 265 125.773Z" fill="white"/>
<path d="M189.5 37.7729C193.09 37.7729 196 34.8628 196 31.2729C196 27.6831 193.09 24.7729 189.5 24.7729C185.91 24.7729 183 27.6831 183 31.2729C183 34.8628 185.91 37.7729 189.5 37.7729Z" fill="#DD00A1"/>
<path d="M431 65.7729C432.657 65.7729 434 64.2059 434 62.2729C434 60.34 432.657 58.7729 431 58.7729C429.343 58.7729 428 60.34 428 62.2729C428 64.2059 429.343 65.7729 431 65.7729Z" fill="#DD00A1"/>
<path d="M424.5 151.773C428.09 151.773 431 148.863 431 145.273C431 141.683 428.09 138.773 424.5 138.773C420.91 138.773 418 141.683 418 145.273C418 148.863 420.91 151.773 424.5 151.773Z" fill="#DD00A1"/>
<path d="M335.716 91.4123C337.382 90.9104 333.642 90.1352 333.519 89.4229C332.107 88.8381 330.748 88.1306 329.458 87.3086C327.093 85.8301 322.231 79.7534 322.801 75.5787C323.37 71.4039 326.379 63.9712 330.539 60.3473C333.135 58.1196 336.123 56.4025 339.349 55.2857C339.349 55.2857 337.94 40.738 340.487 30.8556C343.034 20.9733 349.162 3.89946 355.564 5.55379C361.967 7.20812 356.036 23.1124 351.699 33.3188C348.895 40.1175 346.616 47.123 344.885 54.2727C347.838 54.2607 350.777 54.6766 353.612 55.5075C356.111 56.2188 358.517 57.2232 360.782 58.5C360.782 58.5 367.401 44.1901 376.877 36.9775C386.352 29.7648 396.245 22.3117 400.019 26.4595C403.792 30.6073 394.969 38.4683 389.403 42.2567C383.836 46.0452 374.578 51.4925 371.027 54.7962C368.682 57.0192 366.484 59.3941 364.448 61.9055C367.926 65.3068 370.275 69.705 371.174 74.5006C372.246 81.9548 370.105 90.0983 367.368 92.9827C364.63 95.8671 359.427 97.0126 357.038 96.3859C354.987 95.8497 345.934 95.3386 345.934 95.3386L335.716 91.4123Z" fill="white"/>
<path d="M361.928 58.9723C361.928 58.9723 371.019 47.3323 377.837 41.3153C384.655 35.2982 392.359 31.4379 393.882 33.1503C395.405 34.8627 387.625 40.1662 380.449 45.4056C373.273 50.645 363.399 60.6773 363.399 60.6773L361.928 58.9723Z" fill="#DD00A1"/>
<path d="M341.021 54.9664L342.809 54.2786C342.809 54.2786 346.686 41.0133 349.378 33.0332C352.071 25.0532 355.563 15.1764 352.869 14.453C350.174 13.7295 345.938 20.8924 343.581 32.1381C342.107 39.6651 341.25 47.3002 341.021 54.9664Z" fill="#DD00A1"/>
<path d="M328.245 81.973C329.921 82.2101 331.473 81.0366 331.711 79.352C331.949 77.6674 330.784 76.1096 329.109 75.8725C327.433 75.6354 325.881 76.8088 325.643 78.4934C325.404 80.178 326.57 81.7359 328.245 81.973Z" fill="#F9D8D2"/>
<path d="M362.81 92.7227C364.485 92.9599 366.037 91.7864 366.275 90.1018C366.514 88.4172 365.349 86.8593 363.673 86.6222C361.997 86.3851 360.445 87.5585 360.207 89.2431C359.969 90.9278 361.134 92.4856 362.81 92.7227Z" fill="#F9D8D2"/>
<path d="M350.88 85.5605C350.857 85.5292 350.829 85.5027 350.796 85.4828C350.763 85.4629 350.727 85.4498 350.689 85.4444C350.651 85.4391 350.612 85.4415 350.575 85.4515C350.538 85.4616 350.503 85.4791 350.473 85.5029C350.126 85.8404 349.712 86.0998 349.258 86.2642C348.803 86.4285 348.32 86.4938 347.839 86.456C347.415 86.3068 347.026 86.0732 346.694 85.769C346.363 85.4649 346.095 85.0966 345.909 84.6861L346.6 82.4317C347.552 82.2456 349.294 81.2839 349.435 80.8121C349.49 80.269 349.342 79.7251 349.022 79.285C348.701 78.8449 348.23 78.5397 347.699 78.428C346.212 77.9611 344.833 78.6106 344.579 79.43C344.325 80.2494 345.657 81.8064 346.027 82.2757L345.343 84.4777C345.013 84.7104 344.638 84.8695 344.242 84.9445C343.846 85.0194 343.439 85.0083 343.048 84.9121C341.846 84.5388 341.457 82.6235 341.45 82.6011C341.434 82.5237 341.388 82.4558 341.323 82.4125C341.257 82.3691 341.177 82.3537 341.1 82.3698C341.023 82.3858 340.955 82.4319 340.912 82.498C340.869 82.5641 340.853 82.6447 340.869 82.722C340.857 82.8059 341.332 85.0114 342.871 85.4858C343.309 85.6051 343.766 85.6321 344.215 85.565C344.664 85.4978 345.094 85.338 345.479 85.0956C345.913 85.9414 346.642 86.5964 347.526 86.9356L347.714 86.9622C348.29 87.0263 348.873 86.9619 349.422 86.7734C349.971 86.5849 350.472 86.277 350.889 85.8718C350.916 85.8241 350.93 85.7698 350.928 85.7148C350.927 85.6598 350.91 85.6064 350.88 85.5605Z" fill="#10110E"/>
<path d="M339.348 55.2859C339.348 55.2859 338.436 43.3958 339.356 37.5706C340.276 31.7454 342.363 22.2577 345.388 16.4312C346.721 13.7225 348.211 11.0951 349.852 8.56274C349.852 8.56274 343.454 22.3587 342.225 28.8672C340.996 35.3756 339.348 55.2859 339.348 55.2859Z" fill="#E5E5E5"/>
<path d="M360.785 58.4789C360.785 58.4789 368.759 43.3129 375.111 38.4061C381.463 33.4993 389.257 27.5026 392.617 26.3744L395.962 25.2866C395.962 25.2866 381.289 33.5281 374.046 41.7945C366.804 50.0609 360.785 58.4789 360.785 58.4789Z" fill="#E5E5E5"/>
<path d="M337.586 71.2022C337.135 71.0644 336.652 71.0641 336.2 71.2013C335.748 71.3385 335.346 71.6071 335.046 71.9733C334.745 72.3394 334.559 72.7867 334.51 73.2588C334.462 73.7308 334.554 74.2064 334.774 74.6258C334.994 75.0451 335.333 75.3893 335.748 75.615C337.024 75.7956 336.781 75.9371 337.58 75.7894C338.088 75.6955 338.022 75.6677 338.39 75.3693C338.757 75.0708 339.028 74.6698 339.17 74.2168C339.264 73.9141 339.298 73.5957 339.269 73.28C339.241 72.9642 339.15 72.6574 339.003 72.3772C338.856 72.0969 338.655 71.8488 338.412 71.6472C338.168 71.4455 337.888 71.2943 337.586 71.2022ZM337.584 73.5435C337.502 73.5189 337.426 73.478 337.36 73.4232C337.293 73.3684 337.239 73.3008 337.199 73.2245C337.159 73.1481 337.135 73.0644 337.128 72.9785C337.121 72.8925 337.131 72.806 337.158 72.724C337.178 72.6358 337.216 72.5528 337.27 72.48C337.324 72.4073 337.392 72.3465 337.47 72.3014C337.548 72.2563 337.634 72.2279 337.724 72.218C337.813 72.2081 337.904 72.2169 337.99 72.2438C338.076 72.2708 338.155 72.3153 338.223 72.3745C338.291 72.4338 338.346 72.5066 338.384 72.5882C338.423 72.6699 338.444 72.7588 338.447 72.8492C338.45 72.9396 338.434 73.0296 338.4 73.1136C338.376 73.1963 338.335 73.2732 338.28 73.3399C338.226 73.4065 338.159 73.4614 338.082 73.5015C338.006 73.5416 337.923 73.5659 337.838 73.5731C337.752 73.5803 337.666 73.5703 337.584 73.5435Z" fill="#10110E"/>
<path d="M360.131 78.2093C359.68 78.0694 359.197 78.0671 358.744 78.2027C358.291 78.3382 357.888 78.6056 357.586 78.971C357.284 79.3364 357.096 79.7834 357.046 80.2557C356.996 80.7279 357.087 81.2042 357.306 81.6244C357.526 82.0446 357.864 82.3899 358.279 82.6167C358.693 82.8434 359.166 82.9415 359.637 82.8984C360.107 82.8554 360.555 82.6733 360.923 82.375C361.291 82.0767 361.563 81.6756 361.704 81.2224C361.892 80.6126 361.832 79.9532 361.537 79.3886C361.242 78.8239 360.737 78.3999 360.131 78.2093ZM360.119 80.5491C359.955 80.497 359.817 80.3815 359.738 80.228C359.658 80.0745 359.642 79.8953 359.693 79.7296C359.713 79.6414 359.751 79.5584 359.805 79.4856C359.858 79.4129 359.926 79.3521 360.004 79.307C360.082 79.2619 360.169 79.2335 360.258 79.2236C360.348 79.2137 360.438 79.2225 360.524 79.2494C360.61 79.2764 360.69 79.3209 360.757 79.3801C360.825 79.4394 360.88 79.5122 360.919 79.5938C360.957 79.6755 360.979 79.7643 360.982 79.8548C360.984 79.9452 360.969 80.0352 360.935 80.1192C360.914 80.2053 360.875 80.286 360.822 80.3565C360.769 80.427 360.701 80.4857 360.624 80.5289C360.547 80.5722 360.462 80.5991 360.375 80.608C360.287 80.6168 360.198 80.6075 360.115 80.5805L360.119 80.5491Z" fill="#10110E"/>
<path d="M376.691 77.4518L379.845 67.2598C380.695 67.3279 381.544 67.1131 382.261 66.6485C382.979 66.1839 383.524 65.4953 383.814 64.6888C383.958 63.6911 383.743 62.675 383.209 61.8232C382.674 60.9715 381.854 60.3399 380.896 60.0421C379.938 59.7442 378.906 59.7996 377.984 60.1984C377.063 60.5971 376.313 61.313 375.868 62.2173C375.653 63.045 375.714 63.9207 376.042 64.7092C376.371 65.4977 376.949 66.1552 377.687 66.5802L374.623 76.5071L374.321 76.4643C374.61 65.0223 367.686 55.703 356.031 52.0866C344.376 48.4702 333.44 52.0976 327.195 61.8095L326.176 61.4943C325.102 61.1008 323.917 61.1505 322.878 61.6325C321.839 62.1146 321.032 62.9898 320.633 64.0671L318.205 71.9029C317.93 73.0195 318.104 74.1992 318.689 75.1865C319.274 76.1738 320.223 76.8892 321.33 77.1777L322.705 77.6075C322.947 80.9381 323.988 84.1592 325.737 86.9962L324.541 87.5541L323.244 88.1511C322.938 88.283 322.695 88.5313 322.569 88.842C322.444 89.1527 322.445 89.5005 322.574 89.8096C325.323 96.5388 331.592 101.916 339.751 104.461C347.91 107.005 356.099 106.175 362.182 102.118C362.322 102.029 362.442 101.913 362.537 101.777C362.631 101.642 362.698 101.488 362.734 101.327C362.77 101.165 362.774 100.998 362.745 100.834C362.716 100.671 362.656 100.516 362.567 100.376L361.154 98.0377C364.194 96.6831 366.868 94.6159 368.952 92.0096L370.47 92.481C371.545 92.8749 372.731 92.8256 373.772 92.344C374.812 91.8624 375.621 90.9874 376.023 89.9096L378.441 82.0724C378.685 81.2148 378.646 80.3013 378.331 79.4684C378.015 78.6355 377.44 77.9281 376.691 77.4518ZM352.573 63.2193C363.341 66.5711 369.851 76.4092 367.177 85.1616C364.251 94.6376 353.107 95.8299 343.428 92.8246C333.75 89.8193 325.223 82.5078 328.149 73.0319C330.856 64.2734 341.805 59.878 352.573 63.2193Z" fill="white"/>
<path d="M375.449 88.93L371.079 87.5739C371.294 86.8773 371.62 86.2284 371.861 85.4285C372.764 82.5106 373.374 79.5093 373.681 76.4698L375.534 77.0528C375.953 77.1517 376.348 77.3343 376.695 77.5896C377.042 77.8449 377.334 78.1678 377.554 78.539C377.775 78.9102 377.918 79.3223 377.977 79.7507C378.036 80.1791 378.008 80.6151 377.896 81.0329L375.449 88.93Z" fill="#CECECE"/>
<path d="M371.459 91.2739L369.371 90.6256C370.229 89.2899 370.988 87.8929 371.643 86.4458L375.82 87.7425L375.27 89.525C375.137 89.8938 374.933 90.2324 374.668 90.5208C374.404 90.8092 374.084 91.0417 373.73 91.2047C373.375 91.3676 372.991 91.4576 372.601 91.4695C372.211 91.4814 371.823 91.4149 371.459 91.2739Z" fill="#CECECE"/>
<path d="M324.519 60.9496L326.18 61.4626C324.958 63.7144 323.954 66.0785 323.182 68.5226C322.98 69.1295 322.825 69.7509 322.717 70.3813L319.03 69.2288L321.035 62.5736C321.14 62.2248 321.318 61.9021 321.555 61.6269C321.793 61.3517 322.087 61.1301 322.416 60.9767C322.745 60.8233 323.102 60.7416 323.465 60.737C323.827 60.7323 324.187 60.8048 324.519 60.9496Z" fill="#CECECE"/>
<path d="M352.794 61.9568C350.043 61.1075 347.175 60.7017 344.297 60.7544L347.381 50.7556C353.167 50.7394 358.817 52.4975 363.578 55.7952L360.461 65.8749C358.151 64.132 355.557 62.8063 352.794 61.9568Z" fill="#F8B600"/>
<path d="M346.282 52.8132L343.814 60.7823C335.766 61.2152 328.842 65.6562 326.702 72.5812C323.936 81.5344 330.523 90.2286 343.02 94.1352C355.516 98.0417 365.836 94.6371 368.621 85.6225C370.761 78.6975 367.558 71.113 361.161 66.1877L363.629 58.2187C371.129 63.9201 373.988 73.402 370.759 83.8187C367.128 95.579 355.725 100.701 342.278 96.5214C328.831 92.3414 322.314 81.647 325.962 69.8462C329.176 59.4595 336.871 53.2564 346.282 52.8132Z" fill="#CECECE"/>
<path d="M319.015 69.259L322.59 70.3743C322.067 72.6418 321.635 74.9436 321.334 77.1462L319.553 76.5841C318.105 76.144 317.523 74.0943 318.209 71.8714L319.015 69.259Z" fill="#CECECE"/>
<path d="M382.993 64.4483C383.478 62.8788 382.462 61.1684 380.724 60.6279C378.985 60.0873 377.183 60.9214 376.697 62.4908C376.212 64.0603 377.228 65.7707 378.967 66.3112C380.705 66.8518 382.508 66.0177 382.993 64.4483Z" fill="#CECECE"/>
<path d="M323.521 87.9978C323.521 87.9978 316.631 89.9417 312.645 92.6281C308.66 95.3145 304.225 99.5197 302.327 103.613C300.429 107.707 301.748 109.134 302.573 110.149C303.397 111.163 306.852 113.128 311.926 109.89C317 106.652 316.085 106.875 316.085 106.875C316.085 106.875 313.485 116.835 313.355 123.767C313.225 130.698 313.119 140.84 319.249 142.242C325.379 143.644 326.055 136.908 326.768 135.48C327.136 134.881 327.704 134.433 328.37 134.216C329.035 133.998 329.756 134.026 330.403 134.294C331.624 134.681 333.819 135.483 333.323 139.134C332.828 142.784 329.723 145.039 335.363 147.27C341.003 149.501 345.757 142.582 350.951 134.817C354.193 129.824 356.881 124.489 358.966 118.909C358.966 118.909 371.823 114.409 376.621 110.715C381.419 107.021 385.061 104.585 384.367 100.317C383.673 96.0493 379.529 95.1956 375.696 95.7545C371.863 96.3134 363.759 98.3421 363.759 98.3421L361.59 99.0083L361.474 101.408C361.474 101.408 350.093 107.282 341.22 104.145C332.347 101.008 325.22 92.7502 325.22 92.7502L323.521 87.9978Z" fill="white"/>
<path d="M315.5 91.0213C314.286 91.5903 313.124 92.2629 312.025 93.0315L308.726 95.6013C308.726 95.6013 310.085 99.0011 311.424 99.0836C312.763 99.1662 314.071 97.9614 315.258 97.167C316.444 96.3726 317.166 96.154 317.68 95.0826C318.193 94.0112 315.5 91.0213 315.5 91.0213Z" fill="#DD00A1"/>
<path d="M364.238 98.1852L371.389 96.5775C371.389 96.5775 373.893 98.5035 373.564 99.1733C373.235 99.8431 370.245 100.682 369.5 100.833C368.644 101.141 367.74 101.291 366.832 101.279C366.2 101.082 364.238 98.1852 364.238 98.1852Z" fill="#DD00A1"/>
<path d="M345.266 117.344L344.677 119.25L356.299 125.812L357.093 124.032L345.266 117.344Z" fill="black"/>
<path d="M328.152 112.025L327.548 113.96L314.7 112.912L315.101 110.98L328.152 112.025Z" fill="black"/>
<path d="M344.678 119.25L341.897 122.288L332.558 120.272C332.558 120.272 336.973 123.794 340.381 124.512C343.789 125.229 343.043 123.284 345.022 122.677C347.001 122.07 356.278 125.809 356.278 125.809" fill="#CECECE"/>
<path d="M331.96 107.956L344.906 111.926C345.309 112.228 345.649 112.607 345.907 113.04C346.055 113.478 346.13 113.936 346.13 114.398L343.695 122.286C343.433 122.745 343.068 123.137 342.629 123.429C342.185 123.609 341.724 123.744 341.253 123.833L328.155 119.82C327.669 119.598 327.264 119.231 326.995 118.768C326.773 118.271 326.639 117.738 326.601 117.194L329.074 108.884C329.074 108.884 329.287 108.208 330.389 107.937C330.91 107.848 331.442 107.854 331.96 107.956Z" fill="#F8B600"/>
<path d="M342.422 114.917L332.244 111.752C331.889 111.642 331.511 111.842 331.401 112.199L331.297 112.533C331.187 112.89 331.386 113.27 331.741 113.38L341.919 116.545C342.274 116.655 342.652 116.455 342.762 116.098L342.865 115.764C342.976 115.406 342.777 115.027 342.422 114.917Z" fill="white"/>
<path d="M335.414 119.478C336.03 119.565 336.6 119.134 336.688 118.515C336.776 117.895 336.347 117.322 335.731 117.235C335.115 117.148 334.544 117.579 334.457 118.199C334.369 118.818 334.797 119.391 335.414 119.478Z" fill="white"/>
<path d="M339.774 120.833C340.39 120.92 340.96 120.489 341.048 119.869C341.136 119.25 340.707 118.677 340.091 118.59C339.475 118.503 338.904 118.934 338.817 119.554C338.729 120.173 339.157 120.746 339.774 120.833Z" fill="white"/>
<path d="M330.962 118.089C331.578 118.176 332.149 117.745 332.236 117.125C332.324 116.506 331.896 115.933 331.279 115.846C330.663 115.759 330.093 116.19 330.005 116.81C329.917 117.429 330.346 118.002 330.962 118.089Z" fill="white"/>
<path d="M340.198 102.353C332.109 99.8403 325.816 94.7053 322.884 88.1426L325.774 86.8088C329.313 91.4151 334.738 95.0909 341.768 97.2724C348.797 99.4538 355.677 99.7644 361.194 97.979L362.788 100.396C356.643 104.135 348.245 104.861 340.198 102.353Z" fill="#CECECE"/>
<path d="M338.227 110.489C338.227 110.489 332.338 108.587 332.015 108.541C331.692 108.495 330.661 108.264 330.253 108.591C329.954 108.771 329.719 109.041 329.581 109.362C329.463 109.666 328.051 114.31 328.051 114.31C328.051 114.31 329.684 109.911 330.701 109.339C331.914 108.73 338.227 110.489 338.227 110.489Z" fill="#D69A03"/>
<path d="M378.302 65.3093L374.415 77.8994L379.801 65.7673L378.302 65.3093Z" fill="#CECECE"/>
<path d="M326.83 114.147L314.699 112.912C313.83 117.091 313.37 121.344 313.328 125.612C313.461 131.287 313.928 135.95 314.605 137.479C315.283 139.007 315.077 136.701 317.824 135.7C318.847 135.282 319.895 134.93 320.962 134.647C320.962 134.647 317.255 124.093 318.326 120.204C319.398 116.314 326.83 114.147 326.83 114.147Z" fill="#CECECE"/>
<path d="M316.086 106.875L320.419 103.832C320.419 103.832 318.413 108.541 319.224 109.5C320.035 110.46 327.496 111.996 327.496 111.996L315.096 111.012L316.086 106.875Z" fill="#CECECE"/>
<path d="M346.763 50.6894C342.081 50.5504 337.491 52.0294 333.759 54.8795C327.695 59.6241 327.189 61.7763 327.189 61.7763C325.725 65.144 324.592 68.6469 323.805 72.2352C322.874 77.1607 322.398 83.0059 326.285 87.5547C331.869 93.5995 339.35 97.5336 347.479 98.7005C356.423 99.7523 357.563 99.0583 357.563 99.0583C357.563 99.0583 336.393 96.1697 330.416 88.8769C324.439 81.584 325.399 77.3576 326.689 72.6753C327.979 67.9931 330.674 62.2481 335.367 61.18C338.225 60.5262 341.131 60.1007 344.055 59.9074L346.763 50.6894Z" fill="#CECECE"/>
<path d="M358.966 118.908L360.047 115.405C360.047 115.405 370.07 112.215 374.633 110.487C379.195 108.759 379.859 108.2 379.859 108.2C376.22 110.985 372.293 113.365 368.145 115.299C362.768 117.522 358.966 118.908 358.966 118.908Z" fill="#CECECE"/>
<path d="M331.668 134.826C332.009 134.91 332.317 135.093 332.556 135.351C332.796 135.608 332.955 135.931 333.015 136.278C333.199 137.627 333.209 138.994 333.046 140.345C334.267 140.171 335.511 140.289 336.677 140.688C337.848 141.011 338.923 141.615 339.811 142.446C339.811 142.446 337.934 138.417 336.712 136.384C335.489 134.351 331.668 134.826 331.668 134.826Z" fill="#CECECE"/>
<path d="M309.831 97.7146L308.716 95.6002C308.716 95.6002 304.484 99.7272 303.401 101.669C302.784 102.775 302.229 103.913 301.738 105.08C301.738 105.08 306.998 97.2924 309.831 97.7146Z" fill="#CECECE"/>
<path d="M323.521 87.9977L315.5 91.0219L316.607 92.4402L324.194 89.8571L323.521 87.9977Z" fill="#CECECE"/>
<path d="M315.5 91.0214L313.107 92.2974L308.716 95.5999L309.694 97.6308L316.608 92.4398L315.5 91.0214Z" fill="#B20088"/>
<path d="M355.537 99.178C355.537 99.178 346.647 99.3207 341.452 97.324C336.91 95.419 332.614 92.9695 328.658 90.0288C327.899 89.4206 327.205 88.7348 326.587 87.9823L325.28 87.5194L324.854 87.8975C326.99 90.5891 329.638 92.8248 332.645 94.4741C337.965 97.5364 342.859 99.6295 347.84 99.8317C350.423 100.09 353.032 99.8686 355.537 99.178Z" fill="#B20088"/>
<g opacity="0.4">
<path opacity="0.4" d="M57.7523 7.90186C57.7412 7.92302 57.7314 7.94419 57.7217 7.96536" stroke="#FEFEFC" stroke-width="2" stroke-linecap="round" stroke-linejoin="round"/>
<path opacity="0.4" d="M25.8262 6.05815L25.7886 6" stroke="#FEFEFC" stroke-width="2" stroke-linecap="round" stroke-linejoin="round"/>
</g>
<path d="M40.7713 90.8819C63.2887 90.8819 81.5427 72.5311 81.5427 49.8942C81.5427 27.2574 63.2887 8.90656 40.7713 8.90656C18.2539 8.90656 0 27.2574 0 49.8942C0 72.5311 18.2539 90.8819 40.7713 90.8819Z" fill="#A3B7C5"/>
<path d="M65.4955 58.5256C72.6071 58.5256 78.3723 52.7298 78.3723 45.5804C78.3723 38.431 72.6071 32.6353 65.4955 32.6353C58.3838 32.6353 52.6187 38.431 52.6187 45.5804C52.6187 52.7298 58.3838 58.5256 65.4955 58.5256Z" fill="#697C8C"/>
<path d="M73.5217 70.3719C75.8951 70.3719 77.8192 68.4376 77.8192 66.0516C77.8192 63.6655 75.8951 61.7312 73.5217 61.7312C71.1482 61.7312 69.2241 63.6655 69.2241 66.0516C69.2241 68.4376 71.1482 70.3719 73.5217 70.3719Z" fill="#697C8C"/>
<path d="M27.7725 64.6805C30.2511 64.6805 32.2604 62.6606 32.2604 60.1688C32.2604 57.6771 30.2511 55.6572 27.7725 55.6572C25.294 55.6572 23.2847 57.6771 23.2847 60.1688C23.2847 62.6606 25.294 64.6805 27.7725 64.6805Z" fill="#697C8C"/>
<path d="M20.3743 17.6881C20.1288 19.5614 20.4415 21.4767 21.2727 23.1917C22.1038 24.9067 23.4162 26.3445 25.0438 27.3232C26.6714 28.302 28.5412 28.7777 30.4167 28.6902C32.2921 28.6027 34.0891 27.956 35.5802 26.8318C37.0714 25.7076 38.1898 24.1564 38.7941 22.3744C39.3983 20.5924 39.4613 18.6597 38.9749 16.8205C38.4886 14.9814 37.4748 13.3185 36.0618 12.0421C34.6488 10.7657 32.9001 9.93312 31.0367 9.64969L30.864 9.62342C27.7993 10.5217 24.8591 11.7879 22.1059 13.3951C21.1837 14.6535 20.5888 16.1283 20.3743 17.6881Z" fill="#697C8C"/>
<path d="M36.3494 83.7497C34.995 84.1277 33.7785 84.927 32.874 86.033C31.9695 87.1391 31.4233 88.4952 31.3137 89.9073C35.64 90.6697 40.085 90.7023 44.4717 90.0036C44.4827 89.4623 44.4261 88.9241 44.3032 88.4018C43.8915 86.6938 42.8229 85.2448 41.3318 84.3726C39.8407 83.5005 38.0489 83.2764 36.3494 83.7497Z" fill="#697C8C"/>
<path opacity="0.5" d="M434.568 95.4326C435.562 95.7004 433.334 102.061 434.334 102.33C435.333 102.6 440.169 103.188 439.991 103.854C439.813 104.52 433.979 103.663 433.672 104.098C433.365 104.532 431.585 109.254 430.833 109.405C430.08 109.557 431.988 105.072 431.288 104.349C430.589 103.627 425.268 102.166 425.653 101.398C426.037 100.63 431.068 102.502 431.843 100.923L434.568 95.4326Z" fill="#98C9EA"/>
<path opacity="0.5" d="M175.817 57.977C177.964 58.5553 173.153 72.2881 175.311 72.8694C177.469 73.4507 187.909 74.721 187.525 76.1594C187.142 77.5978 174.544 75.7463 173.882 76.6849C173.22 77.6234 169.377 87.8172 167.752 88.1442C166.127 88.4713 170.246 78.7887 168.736 77.2288C167.226 75.6689 155.739 72.514 156.568 70.8558C157.398 69.1976 168.261 73.2405 169.933 69.8305L175.817 57.977Z" fill="#98C9EA"/>
<path d="M324.5 11.7729C327.538 11.7729 330 9.31052 330 6.27295C330 3.23538 327.538 0.772949 324.5 0.772949C321.462 0.772949 319 3.23538 319 6.27295C319 9.31052 321.462 11.7729 324.5 11.7729Z" fill="#F88600"/>
<path d="M196 106.773C194.343 106.773 193 105.43 193 103.773C193 102.116 194.343 100.773 196 100.773C197.657 100.773 199 102.116 199 103.773C199 105.43 197.657 106.773 196 106.773Z" fill="#F88600"/>
</svg>
