<svg width="135" height="97" viewBox="0 0 135 97" fill="none" xmlns="http://www.w3.org/2000/svg">
<path d="M11.9999 38C9.79081 38 7.99994 36.2091 7.99994 34C7.99994 31.7909 9.79081 30 11.9999 30C14.2091 30 15.9999 31.7909 15.9999 34C15.9999 36.2091 14.2091 38 11.9999 38Z" fill="#F88600"/>
<path d="M103.5 29C107.09 29 110 26.0898 110 22.5C110 18.9102 107.09 16 103.5 16C99.9101 16 96.9999 18.9102 96.9999 22.5C96.9999 26.0898 99.9101 29 103.5 29Z" fill="#DD00A1"/>
<path opacity="0.5" d="M20.9429 63.5591C22.8642 64.0766 18.5588 76.3666 20.4901 76.8868C22.4215 77.407 31.7641 78.5438 31.421 79.8311C31.0778 81.1184 19.8038 79.4614 19.2115 80.3014C18.6191 81.1413 15.1795 90.264 13.7251 90.5567C12.2707 90.8494 15.9568 82.1841 14.6057 80.7881C13.2546 79.3921 2.97425 76.5687 3.71661 75.0848C4.45897 73.6008 14.1806 77.2189 15.6769 74.1672L20.9429 63.5591Z" fill="#98C9EA"/>
<path d="M132 58.5455C133.657 58.5455 135 57.0802 135 55.2727C135 53.4652 133.657 52 132 52C130.343 52 129 53.4652 129 55.2727C129 57.0802 130.343 58.5455 132 58.5455Z" fill="white"/>
<path d="M61.7524 52.9717C58.732 44.685 58.5647 35.4577 61.2756 26.6754C63.9864 17.893 69.4292 10.0297 76.7865 4.26604C73.5412 4.82541 70.3477 5.76443 67.2738 7.06327C61.6253 9.44304 56.4731 12.9715 52.1656 17.4101C47.8581 21.8487 44.4958 27.0938 42.3061 32.7907C40.1165 38.4876 39.1505 44.5035 39.4735 50.4313C39.7965 56.3592 41.401 62.0608 44.1785 67.1505C46.9559 72.2403 50.8416 76.5995 55.5726 79.9332C60.3036 83.267 65.7696 85.4975 71.601 86.4741C77.4323 87.4506 83.493 87.1504 89.373 85.5936C95.2531 84.0368 100.815 81.2598 105.684 77.4504C96.3186 79.0882 86.8892 77.5632 78.9181 73.1218C70.9471 68.6803 64.8997 61.5815 61.7524 52.9717Z" fill="white"/>
</svg>
