<svg xmlns="http://www.w3.org/2000/svg" viewBox="0 0 1364 429"><defs><style>.cls-1,.cls-9{fill:#121259;}.cls-1{opacity:0.6;}.cls-2{fill:#003;}.cls-3,.cls-4,.cls-5{fill:#98c9ea;}.cls-3{opacity:0.5;}.cls-10,.cls-11,.cls-4,.cls-9{opacity:0.8;}.cls-11,.cls-6{fill:#fff;}.cls-7{fill:#dd00a1;}.cls-8{fill:#f88600;}.cls-10{fill:#22227f;}.cls-12{fill:#fcf6f0;}.cls-13{fill:#9a806c;}.cls-14{fill:#d4bfab;}.cls-15{fill:#211c16;}.cls-16{fill:#dc8faa;}.cls-17{fill:#b79b85;}.cls-18{fill:#f2d3dc;}.cls-19{fill:#326075;}.cls-20{fill:#0a0508;}.cls-21{fill:#fdf9f4;}.cls-22{fill:#0f0b0d;}.cls-23{fill:#3a3b40;}.cls-24{fill:#3b3739;}.cls-25,.cls-26{fill:#898787;}.cls-26{opacity:0.59;}</style></defs><g id="Layer_2" data-name="Layer 2"><g id="Layer_1-2" data-name="Layer 1"><g id="background"><path class="cls-1" d="M154.23,0S9.29,113.32,107.37,132.93,403.22,78.45,452,127.49s-111.43,102.43-98.35,116.6,312.76-52.31,307.31,0-513.27,105.7-552.5,123.14S0,413.46,0,413.46V0Z"/><path class="cls-1" d="M785.19,0S595.58,122,654.42,134s236.48,57.76,197.25,94.81-181.32,49-169.67,78.46,452.57,44.79,486.79,69.75S1364,429,1364,429V0Z"/><path class="cls-2" d="M23.46,71.91c8.46-5.08-6.54,101.34,62.11,111.15s267-22.88,264.81-16.34S181.47,222.29,208.71,243s99.17,30.51,131.86,34.87,204.88-17.44,204.88-17.44-440.26,63.21-455.52,73-67.56,36-66.47,40.32S107.37,291,91,265.88-3.79,88.25,23.46,71.91Z"/><path class="cls-2" d="M874.55,54.47s-118.78,29.43-74.1,59.94,158,88.25,155.83,108.42S823.33,285.5,827.69,295.31s258.27,33.78,275.71,42.5S949.75,296.4,966.09,283.32,1074,240.49,1066.35,214.5,864.74,123.13,858.21,109,886.54,66.46,874.55,54.47Z"/><path class="cls-3" d="M558.48,123.16c1.9,0,.95,12.38,2.86,12.38s10.81-1.27,10.81,0S561.34,138.08,561,139s-1.27,10.17-2.54,10.8,0-8.26-1.59-9.21-11.77-1-11.45-2.55,10.18-.63,10.81-3.81Z"/><path class="cls-4" d="M1097.66,120.36c.93,0,.47,6,1.4,6s5.28-.62,5.28,0-5.28,1.24-5.44,1.71-.62,5-1.24,5.28,0-4-.77-4.51-5.75-.46-5.59-1.24,5-.31,5.28-1.86Z"/><path class="cls-4" d="M1067.56,268.9c.93,0,.46,6,1.39,6s5.28-.62,5.28,0-5.28,1.24-5.43,1.71-.62,5-1.24,5.27,0-4-.78-4.5-5.74-.46-5.59-1.24,5-.31,5.28-1.86Z"/><path class="cls-5" d="M882.42,28.61c.93,0,.46,6,1.4,6s5.27-.62,5.27,0-5.27,1.24-5.43,1.71-.62,5-1.24,5.27,0-4-.78-4.5-5.74-.46-5.59-1.24,5-.31,5.28-1.86Z"/><path class="cls-3" d="M213.8,338.82c1.91,0,.95,12.38,2.86,12.38s10.81-1.28,10.81,0-10.81,2.54-11.13,3.49-1.27,10.18-2.54,10.81,0-8.26-1.59-9.22-11.76-.95-11.44-2.54,10.17-.64,10.8-3.82S213.8,338.82,213.8,338.82Z"/><path class="cls-3" d="M117.77,117.74c.93,0,.46,6,1.39,6s5.28-.62,5.28,0-5.28,1.24-5.43,1.71-.62,5-1.24,5.28,0-4-.78-4.5-5.74-.47-5.59-1.25,5-.31,5.28-1.86Z"/><circle class="cls-6" cx="135.77" cy="293.2" r="2.25"/><circle class="cls-6" cx="203.46" cy="107.54" r="2.71"/><circle class="cls-6" cx="333.77" cy="262.33" r="3.26"/><circle class="cls-6" cx="373.73" cy="152.25" r="2.37"/><path class="cls-6" d="M489.3,77.12v0Z"/><circle class="cls-6" cx="373.73" cy="67.74" r="2.37"/><circle class="cls-6" cx="492.01" cy="193.94" r="2.7"/><circle class="cls-6" cx="663.74" cy="193.94" r="2.7"/><circle class="cls-6" cx="719.98" cy="115.67" r="2.07"/><circle class="cls-6" cx="731.05" cy="56.17" r="1.7"/><circle class="cls-6" cx="623.5" cy="37.17" r="2.04"/><circle class="cls-6" cx="525.38" cy="69.74" r="2"/><circle class="cls-6" cx="602.68" cy="331.81" r="1.63"/><circle class="cls-6" cx="792.96" cy="295.76" r="2.56"/><circle class="cls-6" cx="920.91" cy="295.76" r="2.56"/><circle class="cls-6" cx="1070.98" cy="243.54" r="3.27"/><circle class="cls-6" cx="1067.71" cy="301.59" r="3.27"/><circle class="cls-6" cx="1106.65" cy="171.99" r="2"/><circle class="cls-6" cx="1039.47" cy="66.55" r="1.19"/><circle class="cls-6" cx="992.5" cy="204.29" r="2.43"/><circle class="cls-6" cx="792.96" cy="199.21" r="2.56"/><circle class="cls-6" cx="858.02" cy="367.53" r="1.99"/><circle class="cls-6" cx="687.86" cy="307.51" r="2.65"/><circle class="cls-6" cx="405.53" cy="319.74" r="2.03"/><circle class="cls-6" cx="216.48" cy="176.36" r="2.37"/><circle class="cls-6" cx="297.5" cy="216.65" r="2.15"/><circle class="cls-6" cx="253.67" cy="275.42" r="1.63"/><circle class="cls-6" cx="30.34" cy="208.17" r="1.44"/><circle class="cls-6" cx="144.56" cy="26.55" r="2.04"/><circle class="cls-6" cx="249.17" cy="37.17" r="2.04"/><circle class="cls-6" cx="61.78" cy="68.74" r="1"/><circle class="cls-6" cx="721.01" cy="378.62" r="1.04"/><circle class="cls-6" cx="1165.62" cy="59.34" r="1.46"/><circle class="cls-6" cx="1261.74" cy="159.85" r="5.23"/><circle class="cls-6" cx="1242.62" cy="245.18" r="1.63"/><circle class="cls-6" cx="1241.8" cy="316.9" r="0.82"/><circle class="cls-6" cx="1135.55" cy="272.97" r="2.45"/><circle class="cls-6" cx="1143.9" cy="366.53" r="1"/><circle class="cls-6" cx="1005.08" cy="343.97" r="1.53"/><circle class="cls-6" cx="1090.49" cy="361.86" r="0.97"/><circle class="cls-6" cx="1140.95" cy="322.69" r="2.95"/><circle class="cls-6" cx="1187.76" cy="359.51" r="2.36"/><circle class="cls-6" cx="1247.14" cy="386.89" r="2.89"/><circle class="cls-6" cx="1313.41" cy="313.12" r="2.96"/><circle class="cls-6" cx="1325.17" cy="42.48" r="3.27"/><circle class="cls-6" cx="1278.99" cy="21.64" r="1.23"/><circle class="cls-6" cx="1173.74" cy="102.44" r="1.41"/><circle class="cls-6" cx="1102.12" cy="22.95" r="2.53"/><circle class="cls-6" cx="1005.85" cy="11.38" r="0.77"/><circle class="cls-6" cx="1331" cy="217.06" r="2.56"/><circle class="cls-7" cx="1301.88" cy="205.51" r="1.22"/><circle class="cls-7" cx="539.1" cy="284.07" r="1.3"/><circle class="cls-7" cx="506.42" cy="363.7" r="1.84"/><circle class="cls-7" cx="302.67" cy="83.14" r="3.01"/><circle class="cls-7" cx="236.79" cy="195.29" r="1.35"/><circle class="cls-7" cx="164.98" cy="126.29" r="2.03"/><circle class="cls-7" cx="193.93" cy="53.86" r="4.02"/><circle class="cls-7" cx="56.5" cy="267.02" r="1.44"/><circle class="cls-7" cx="112.59" cy="72.92" r="1.19"/><circle class="cls-7" cx="175.24" cy="318.3" r="1.44"/><circle class="cls-7" cx="117.88" cy="348.07" r="4.1"/><circle class="cls-7" cx="1018.54" cy="254.86" r="1.5"/><circle class="cls-7" cx="1177.18" cy="193.26" r="2.03"/><circle class="cls-8" cx="1097.67" cy="96.09" r="1.35"/><circle class="cls-8" cx="401.99" cy="245.05" r="1.51"/><circle class="cls-8" cx="313.37" cy="320.2" r="2.49"/><circle class="cls-8" cx="326.05" cy="405.01" r="2.09"/><circle class="cls-8" cx="1038.88" cy="29.18" r="0.59"/><circle class="cls-8" cx="1164.89" cy="131.52" r="0.73"/><circle class="cls-8" cx="1196.85" cy="238.64" r="1.63"/><circle class="cls-8" cx="1258.96" cy="272.97" r="2.45"/><circle class="cls-8" cx="1306.49" cy="351.33" r="5.82"/><circle class="cls-8" cx="1218.15" cy="134.02" r="2.5"/><circle class="cls-8" cx="936.74" cy="16.28" r="4.14"/></g><path class="cls-9" d="M40.48,164.64s65.37,3.69,117,9.35,204.32,7.38,194.52,21.3-79.44,48.3-62.06,51.27,137.25,8.1,140.52,11.8-139.67,42.69-135.77,51.8S234.32,348,225.06,365.53s-43.59,41.58-43.59,41.58S334.56,291.7,279.81,285.87,151,250.08,128.07,250.63,303.38,216,277.3,214.5,40.48,164.64,40.48,164.64Z"/><path class="cls-10" d="M31.78,134s142.06,59.6,179.11,59.22S345.63,202.7,337,208.17,185.1,242.45,206.17,249.54,369.15,258.36,360,267s-112,77-121.52,85.16S146.4,389.57,122,393.93s-90.35,28.33-93.07,28.33,200.33-92.08,177.26-107.88S69.4,297.62,62.78,293.2s166-69.6,151.33-71.62S92.66,181.1,72.5,176.36,31.78,134,31.78,134Z"/><path class="cls-9" d="M2.25,151.21s231.86,64,217.67,66.42-103,68.87-89.38,68.87,99.17,21.38,86.64,29.49-212,104.55-212,104.55,126.85-86.11,90.67-94.27-87.4,8.39-76-7.79,130.23-76.38,113.88-83.6S2.25,151.21,2.25,151.21Z"/><path class="cls-6" d="M396.4,111.89A29.06,29.06,0,0,1,413.17,81.3a29.06,29.06,0,1,0,9.35,55.41A29.06,29.06,0,0,1,396.4,111.89Z"/><g id="stars"><path class="cls-6" d="M211.63,271.64c1.59,0,.79,10.32,2.38,10.32s9-1.06,9,0-9,2.12-9.27,2.91-1.06,8.48-2.12,9,0-6.89-1.33-7.68-9.8-.8-9.54-2.12,8.48-.53,9-3.18S211.63,271.64,211.63,271.64Z"/><path class="cls-6" d="M264.68,282.06c1.59,0,.8,10.32,2.39,10.32s9-1.06,9,0-9,2.12-9.28,2.91-1.06,8.48-2.12,9,0-6.89-1.32-7.68-9.8-.8-9.54-2.12,8.48-.53,9-3.18Z"/><path class="cls-6" d="M280.28,259.07c1.59,0,.8,10.32,2.39,10.32s9-1.06,9,0-9,2.12-9.27,2.91-1.06,8.48-2.12,9,0-6.89-1.32-7.68-9.81-.8-9.54-2.12,8.48-.53,9-3.18Z"/><path class="cls-11" d="M287,270.21c1.58,0,.79,10.31,2.38,10.31s9-1.06,9,0-9,2.12-9.28,2.92-1.05,8.47-2.11,9,0-6.89-1.33-7.68-9.8-.79-9.54-2.12,8.48-.53,9-3.18S287,270.21,287,270.21Z"/><path class="cls-11" d="M227.21,260.51c1.59,0,.79,10.32,2.38,10.32s9-1.06,9,0-9,2.11-9.27,2.91-1.06,8.48-2.12,9,0-6.89-1.33-7.69-9.8-.79-9.54-2.12,8.48-.53,9-3.17S227.21,260.51,227.21,260.51Z"/><path class="cls-11" d="M231.42,277.36c1.59,0,.8,10.32,2.39,10.32s9-1.06,9,0-9,2.11-9.27,2.91-1.06,8.48-2.12,9,0-6.89-1.32-7.69-9.81-.79-9.54-2.12,8.48-.53,9-3.17Z"/><path class="cls-11" d="M173.54,214.36c1.59,0,.79,10.32,2.38,10.32s9-1.06,9,0-9,2.12-9.27,2.91-1.06,8.48-2.12,9,0-6.89-1.33-7.68-9.8-.8-9.53-2.12,8.47-.53,9-3.18S173.54,214.36,173.54,214.36Z"/><path class="cls-11" d="M173.54,145.55c1.59,0,.79,10.31,2.38,10.31s9-1.06,9,0-9,2.12-9.27,2.92-1.06,8.48-2.12,9,0-6.89-1.33-7.69-9.8-.79-9.53-2.12,8.47-.53,9-3.18S173.54,145.55,173.54,145.55Z"/><path class="cls-11" d="M67.36,176.86c1.59,0,.8,10.32,2.39,10.32s9-1.06,9,0-9,2.12-9.28,2.91-1.06,8.48-2.12,9,0-6.89-1.32-7.68-9.8-.8-9.54-2.12,8.48-.53,9-3.18Z"/><path class="cls-11" d="M124.18,86.15c1.59,0,.79,10.32,2.38,10.32s9-1.06,9,0-9,2.12-9.27,2.91-1.06,8.48-2.12,9,0-6.89-1.33-7.68-9.8-.8-9.54-2.12,8.48-.53,9-3.18S124.18,86.15,124.18,86.15Z"/><path class="cls-11" d="M61.52,85c1.59,0,.79,10.32,2.38,10.32s9-1.06,9,0-9,2.12-9.27,2.91-1.06,8.48-2.12,9,0-6.89-1.33-7.68-9.8-.8-9.54-2.12,8.48-.53,9-3.18S61.52,85,61.52,85Z"/><path class="cls-11" d="M200.5,17.47c1.59,0,.79,10.32,2.38,10.32s9-1.06,9,0-9,2.12-9.27,2.91-1.06,8.48-2.12,9,0-6.89-1.33-7.68-9.8-.8-9.54-2.12,8.48-.53,9-3.18S200.5,17.47,200.5,17.47Z"/><path class="cls-11" d="M106.48,305.72c1.59,0,.8,10.32,2.39,10.32s9-1.06,9,0-9,2.12-9.28,2.91-1.06,8.48-2.12,9,0-6.89-1.32-7.68-9.8-.8-9.54-2.12,8.48-.53,9-3.18Z"/><path class="cls-11" d="M173.54,372.87c1.59,0,.79,10.31,2.38,10.31s9-1.06,9,0-9,2.12-9.27,2.92-1.06,8.48-2.12,9,0-6.89-1.33-7.69-9.8-.79-9.53-2.12,8.47-.53,9-3.18S173.54,372.87,173.54,372.87Z"/><path class="cls-11" d="M360.2,288.49c1.59,0,.79,10.32,2.38,10.32s9-1.06,9,0-9,2.12-9.27,2.91-1.06,8.48-2.12,9,0-6.89-1.33-7.68-9.8-.8-9.53-2.12,8.47-.53,9-3.18S360.2,288.49,360.2,288.49Z"/><path class="cls-11" d="M430.27,361.73c1.59,0,.8,10.32,2.39,10.32s9-1.06,9,0-9,2.12-9.27,2.91-1.06,8.48-2.12,9,0-6.89-1.32-7.68-9.81-.8-9.54-2.12,8.48-.53,9-3.18Z"/></g><g id="bunny"><path class="cls-12" d="M249.85,226.28l6.52-.28s8.92,3,12,3.81,11.3,3.56,11.86,3.22.56-5.5-1.26-7.45-3.62-4.18-8.78-5.16a23,23,0,0,0-8.12-.37s2.31-2.35,1.84-3.81-3.2-2.88-3.2-2.88-1.54-5.63-2.52-8.14A40.34,40.34,0,0,0,254.7,199s3.57-.44,7.36-4.45,6.16-7.63,6.3-9.72a6.7,6.7,0,0,0-1-3.77s-2-6.28-4.55-8.44a25.08,25.08,0,0,0-7-3.81c-1.39-.58-1.67-1.14-1.53-2.25s2.09-8.51,2.93-11.44a57.25,57.25,0,0,1,2.91-7.23,20.93,20.93,0,0,1,5,9.26c1.54,5.92,2.79,12.06,5.17,12.34s6.13-2.24,7.39-6.63a20.57,20.57,0,0,0-2.1-15.88c-3.2-5.25-8.14-9.54-13.55-9.83s-7.92,1.37-10.29,3.88-3.56,4.61-2.83,13.39.91,13.11.91,13.11l-2.27.42V153.9c0-.76,0-1.55-.1-2.36-.28-3.28-1.16-6.72-2.7-8.59a4.4,4.4,0,0,0-1.24-1.07c-2.79-1.51-8.92-1.65-12,1.14s-6.82,11.3-6.62,17.09,4.74,11.35,7.42,12.54a4,4,0,0,0,5.61-1.74c1-1.81,2.37-4.35,2.51-5.94a22.66,22.66,0,0,1,.84-3.82,13.88,13.88,0,0,1,1.95,4.46,34.43,34.43,0,0,1,.28,4.18,16.05,16.05,0,0,0-9,8.51c-3.25,6.84-1.64,11.44,1.25,13.95a27.24,27.24,0,0,0,10.71,6.29c.55.18.42,1.15,0,3.5s-.56,3.46-.56,3.46-3.21-2.23-4.88-.84-4.33,3.44-4.47,6.46a7.26,7.26,0,0,0,2.1,5.12s-1.54,1.67,1.39,4.6c0,0-6-2.1-8.5.69s-4.44,4.53-4.87,6.87-.45,3.87.95,3.87a39.28,39.28,0,0,0,5.63-1.11s4.14-.33,6.09-1.35,3.53-2.74,5.25-2.56C247.16,227.53,249.4,227.69,249.85,226.28Z"/><path class="cls-13" d="M247.27,201.7s-.89,12.13-.89,13.44,0,2.3.44,2.51a6,6,0,0,0,2.23.73c.83,0-1.52,0-1.94.42s-.42-1.36-.73-1-1.12-3-2.13-3.57-1.82-.64-2.32-.1-.86-.89,1.83-.78-1-.84-2.17-.58a7.76,7.76,0,0,0-2.74,2s-1.68-4.44,0-6.33,2.4-2.92,3.82-3a5.58,5.58,0,0,1,2.77.68s-1.1,3.4-1.15,3.82a4.63,4.63,0,0,0,0,.89s1-2,1.46-3S247.27,201.7,247.27,201.7Z"/><path class="cls-14" d="M241,214.46s-1.67,1.36-1.67,2.72.26,2.46.84,2.87.94,1.31,2.09,1.63,6.07,1.83,6.64,2,1,1.83,1,1.83l-.09.79,6.52-.28s20.24,5.35,20.81,5.35a1.38,1.38,0,0,0,1.15-1.15,7.18,7.18,0,0,0-1.51-4.13,8.74,8.74,0,0,0-2.09-1.83s2.14,2.09,2.19,3.55-.21,2.36-1.36,2-2.56-3.29-4.7-4.08a35.18,35.18,0,0,0-7.54-2c-1.83-.11-5.23-.32-4.91-.82a7.34,7.34,0,0,1,1.46-1.28s-2.19.42-1.88-.1,2.72-1.1,2.72-1.1-2.82.31-2.82,0-4.76,2.53-4.76,2.53c-.74,0,.05,0-.74,0s-1-.26-3.16-.52-6.56-1.68-7.4-2.88-1.88-1.78-.89-3.56,2-2,2.25-2A1.72,1.72,0,0,0,241,214.46Z"/><path class="cls-13" d="M235,220.63s-4.71,1.57-6.17,4.45-2.59,5.33-2.18,5.8a13.46,13.46,0,0,1,.95,1.39l4.42-.92a9.38,9.38,0,0,1-3-.21c-.74-.36-.89-3.76.26-5.39a16,16,0,0,1,4-3.71A10.82,10.82,0,0,0,235,220.63Z"/><path class="cls-14" d="M235,223.77s-2,1.15-2.51,2.3a12.18,12.18,0,0,0-.84,3.4,9.5,9.5,0,0,0,.37,1.88s3.29-.68,4.08-.89,3.63-.31,4.4-1.36,2.2-2.44,3.13-2.14a16.29,16.29,0,0,0,3.56.15l1.3-.15s-2.73-.16-3.92-.32a4.72,4.72,0,0,0-4.13,1.36,6.31,6.31,0,0,1-4.71,1.52c-1.3-.05-2.09-.78-2.14-1.57A4.62,4.62,0,0,1,235,223.77Z"/><path class="cls-13" d="M247.48,222.83s2.4-.08,4,0,3.44-1,4.28-1.49,1.74-1.29,1.74-1.81-1.94-.26-2.41-.89a4.27,4.27,0,0,1-.41-2.19c0-.21,1.09-4.5,1.09-4.5s-1.3,3.87-.68,5.18.89,1.93,1.89,1.75a11.55,11.55,0,0,0,2.51-1,4.6,4.6,0,0,1-1.36,1.41c-.63.26-.16,1.1.42,1.36s-1.42,1-2.78,1.46-4.34,1-4.76,1.26-.57.31-.73.89-.36,1.25-.36,1.25a4.86,4.86,0,0,0-1-1.83A6.66,6.66,0,0,0,247.48,222.83Z"/><path class="cls-14" d="M248.07,169.31s-7.18.53-9.62,4.17-4.67,8.61-4.67,10.65.83,7,4.74,9.37a59.34,59.34,0,0,0,9.83,4.54,9.85,9.85,0,0,0,5.14,1,18.6,18.6,0,0,0,5.37-2s-4.88,2-6.13,1.48-3.82-3.71-4.45-4.48-4.62-7-4.62-7l1.9-1a20,20,0,0,0-3.77.7,1.68,1.68,0,0,1-.49.2,5.2,5.2,0,0,1-1.18.15,5.07,5.07,0,0,1,.75.07,2.38,2.38,0,0,1,1.9,1.11c.49,1.19,3.49,5,4,6.14s-.91,1.19-1.89.63-3.34-2.09-3.9-3.21-1.61-1.74-2-2.37.21-1.05.7-1.33a6.38,6.38,0,0,1,2.65-1c1.24-.07-3.28-.84-3.62-.84s1.25-.56,1.25-.56l-2-.59A27.72,27.72,0,0,0,242,183a10.73,10.73,0,0,1,3.36-1.6c.42-.07,2.79-.14,2.79-.14a48.4,48.4,0,0,0-6.21-.7c-1.11.14-1.46.63-1.81.21s.42-3.62,1.47-5,3.76-4,4-4.25-2,1-2.58,1.11S245.7,169.17,248.07,169.31Z"/><path class="cls-15" d="M249.53,185.1a15.78,15.78,0,0,0-4,.94l-1.9,1s6.36,9.13,8.66,9.34,4.75-2.3,5.86-4.11,2.53-4.32,2.52-4.88v-.56l-1.18-1-1.47,1.4-1,3.51h-1.82v-2.12l-.62,1.57h-1.83l-1.31-3.31Z"/><path class="cls-16" d="M247.48,192a7.52,7.52,0,0,1,2.4-.59l.63.11a6.38,6.38,0,0,1,1.67.18c1.4.24,1.82,1.08,1.82,1.7s-.86,1.4-1.27,2.17-1.49.26-1.49.26S248.2,192.93,247.48,192Z"/><path class="cls-17" d="M247.48,209.65s-1.1,4.65-1.1,5.49-.38,2.49,1.4,2.94a9.15,9.15,0,0,0,3,.46c.35,0,.71-.94.71-.94s-.21.57-1.72.31-2.3-.73-2.46-2A61.73,61.73,0,0,1,247.48,209.65Z"/><path class="cls-17" d="M256.16,209.07s-1.26,6.46-1.32,6.7a7.16,7.16,0,0,0,.56,1.95,4.41,4.41,0,0,0,.76.83,5.66,5.66,0,0,1-.66-3.15C255.53,213.26,256.16,209.07,256.16,209.07Z"/><path class="cls-17" d="M249.53,185.1s1.82-.86,2.18-1.55a.83.83,0,0,0-.26-1.1l1.28-.89s.76.58.5,1.05.4,1.48.77,1.52a.68.68,0,0,1,.5.38l-2.73,1a5.75,5.75,0,0,0,2.23,1.57,7.89,7.89,0,0,0,2.89.32,4.32,4.32,0,0,1,1.15-.14,7.1,7.1,0,0,1-2.82.76,7.61,7.61,0,0,1-3.8-1.11Z"/><path class="cls-14" d="M258,182.4a8.6,8.6,0,0,0,.82,1.73,5.81,5.81,0,0,1,.65,1.7s.43.89,1.18,1,.59.4.59.4l-.58,3.53s.69-3,1.37-3.06,2.88-.57,2.88-.57a2.71,2.71,0,0,1-2.25-.32c-1.1-.73-1.21-1.1-1.68-1.25s-.89-.85-1.25-1.34-1.26-1.28-.63-1.8a11.56,11.56,0,0,1,3.61-1.36c.47,0,.59-1.06.53-1.69s.41,1.11-1.42,1.53A9.49,9.49,0,0,0,258,182.4Z"/><path class="cls-13" d="M249.53,185.1l2.18-1.55.06,1.93s-.63.48.41,1.05,2.51,1.49,3,1.46a11.59,11.59,0,0,1-2.84-.58A22.18,22.18,0,0,1,249.53,185.1Z"/><ellipse class="cls-16" cx="255.3" cy="183.41" rx="1.96" ry="1.21"/><ellipse class="cls-18" cx="255.64" cy="183.27" rx="1.5" ry="0.93"/><path class="cls-6" d="M257.86,181.56a2.76,2.76,0,0,1-1.31-1.51,21,21,0,0,1-.57-2.66,11.22,11.22,0,0,1,0-2.92,2,2,0,0,1,.6-.82l.81-.4h1.47l1.51.94,1.39,1.9,1.09,2,.13,1.67-.67.86a22.5,22.5,0,0,1-2.88.76Z"/><path class="cls-6" d="M251.35,181.75l.83-.19.77-2-.22-1.82-.7-2L251,174.42l-2-.55-1.8.16-1.52.81-1.07,1.68v1.93l.24,1.41.91.73a8.25,8.25,0,0,1,1.27.32A34.4,34.4,0,0,0,251.35,181.75Z"/><circle class="cls-19" cx="250.27" cy="178.77" r="2.14"/><circle class="cls-20" cx="250.27" cy="178.77" r="1.28"/><circle class="cls-21" cx="251.35" cy="179.73" r="0.38"/><path class="cls-19" d="M256.55,180.05a2.15,2.15,0,1,0-.57-2.35Z"/><circle class="cls-20" cx="257.96" cy="178.39" r="1.28"/><circle class="cls-21" cx="259.04" cy="179.35" r="0.38"/><path class="cls-14" d="M226.66,161.36s4.67-17.44,9.7-18.13,6.39-.07,7.3,1.46,0,4.74,0,4.74.58-2.53,1.83-1.51,2,3.62,2,3.62-.89-6.83-3.38-8.6a10,10,0,0,0-10.84-.62c-4.3,2.37-6.11,10.6-6.32,12.27S226.66,161.36,226.66,161.36Z"/><path class="cls-16" d="M242.35,155.64l1.31-6.21a24.38,24.38,0,0,1,1.27,4.95c.14,1.89.35,7,.35,7a13.5,13.5,0,0,1-.68,2.57,54.37,54.37,0,0,0-1.34-6.27C242.84,156.89,242.35,155.64,242.35,155.64Z"/><path class="cls-16" d="M252.73,162.89c-.34-1-.15-9.27,0-10.46s.8-5.3,1.42-6.07,1.49-1.74,1.49-1.74l2.32,1a25.53,25.53,0,0,0-3,5.51C254.07,153.83,252.73,162.89,252.73,162.89Z"/><path class="cls-13" d="M242,157.11l.44-1.93a13.75,13.75,0,0,1,1.11,2.9c.07.84,1,5.52,1,5.52s-1.27-5.44-1.64-5.78A9.37,9.37,0,0,0,242,157.11Z"/><path class="cls-13" d="M243.14,151.91a14.57,14.57,0,0,1,.68-3.24c.35-.47.64-1,1-1a2.83,2.83,0,0,1,1.43,1.14c.31.52-.28.28-.68.83s-.28,1.31-.31,2.46.18,3.08.16,4.42-.22,3.34-.22,3.34-.36-4.86-.83-5.93A10.5,10.5,0,0,0,243.14,151.91Z"/><path class="cls-13" d="M258,145.67s-2.45,3.49-3,5.51-1.63,8.7-1.63,8.7,1.7-8.7,3-10.1a1.83,1.83,0,0,1,2.56-.35h.56l.7-1.52a7.94,7.94,0,0,0-1.08-1.56A3.56,3.56,0,0,0,258,145.67Z"/><path class="cls-13" d="M249.18,148.53s.87-5.86,2.59-7.47,5.12-3.73,7.27-3.82,6.22-.08,7.53,1.11a13.69,13.69,0,0,0,3.27,2s-8.38-.75-7.82.63,3.48,2.78,3.69,3.62-.76,1-.76,1,1.25,3.55,0,2.58-3.54-.73-4.25-1.24-4.19-2-5.06-2.39c-.39-.17-2.45,3.62-2.49,4.81s-1,5.3-1,5.3a54.54,54.54,0,0,1,.23-6.81C252.74,146.29,252.31,143.93,249.18,148.53Z"/><path class="cls-13" d="M248.45,181.3s-2.69-.43-3.15-.49a1.57,1.57,0,0,1-1.13-1.08,8,8,0,0,1,.43-4,4,4,0,0,1,2.88-2,4.73,4.73,0,0,1,3.1.31,3.33,3.33,0,0,1,1.83,2,7.14,7.14,0,0,1,.54,3.48,3.67,3.67,0,0,1-.77,2,1.48,1.48,0,0,1-.83.19,1.62,1.62,0,0,0,1.22-1.43,5.12,5.12,0,0,0-.16-3.22c-.47-1.13-.61-2-1.67-2.46a4.65,4.65,0,0,0-3.89-.28c-1.39.63-1.92,1.36-2,2.44a5.46,5.46,0,0,0,.25,2.87,3.17,3.17,0,0,0,1.91,1.24C247.37,181,248.45,181.3,248.45,181.3Z"/><path class="cls-13" d="M256,174.47a1.7,1.7,0,0,1,1.71-1.43,4.27,4.27,0,0,1,3.59,1.85,9.18,9.18,0,0,1,1.85,3.31c.18.83.23,1.74,0,2s-.05.3-.66.5-3.37,1.09-3.37,1.09,2.85-1,3.21-1.17a1.63,1.63,0,0,0,.58-1.35,6.63,6.63,0,0,0-1.13-3.15c-.72-.93-2.06-2.62-3.39-2.67S256.84,173.37,256,174.47Z"/></g><g id="hat"><path class="cls-22" d="M244.4,216.61s-7.68-3-12.62-3-12.75.8-14.26,1.48-6.31,6.46-2.19,12.38,9.46,7.67,11.51,7.67h3s-7.11,52.91-5.89,53.31S241.83,290,253.26,290s24.46-.81,25.56-1.48-4-50.21-4-50.21,4.8-.54,10.22-8.08,6.57-14.13,4-18.3-9.83-4.45-19.57-2.16S252.9,213.65,244.4,216.61Z"/><path class="cls-23" d="M231.78,213.65s-3.84.67-2.19,2.28,8.09,3.1,8.09,3.1l6.72-2.42S235.22,213.55,231.78,213.65Z"/><path class="cls-24" d="M239.32,231.82S258.25,218.9,262.77,217s9.19-2.29,10.56-1.88a11.23,11.23,0,0,1,2.61,1.21l-1.51,17.23a62.62,62.62,0,0,0-15.63-2C250.16,231.55,239.32,231.82,239.32,231.82Z"/><path class="cls-25" d="M240.28,228.32s16.18-11.73,19.2-13.34S272.89,209,272.89,209s-10,5-14.51,8.12S240.28,228.32,240.28,228.32Z"/><path class="cls-26" d="M250.65,224.28s.92,64.48,2.61,64.21,11,0,11,0-2.06-56.94-2.19-61.38-.81-9.37-.81-9.37Z"/></g></g></g></svg>