<svg xmlns="http://www.w3.org/2000/svg" viewBox="0 0 1364 429"><defs><style>.cls-1{fill:#121259;opacity:0.6;}.cls-2{fill:#003;}.cls-3,.cls-4,.cls-5{fill:#98c9ea;}.cls-3{opacity:0.5;}.cls-4{opacity:0.8;}.cls-6{fill:#fff;}.cls-7{fill:#f88600;}.cls-8{fill:#dd00a1;}.cls-9{opacity:0.4;}.cls-10,.cls-11{fill:none;stroke:#fefefc;stroke-linecap:round;stroke-linejoin:round;stroke-width:2px;}.cls-11{stroke-dasharray:1 5.97;}.cls-12{fill:#a3b7c5;}.cls-13{fill:#697c8c;}.cls-14{fill:#f9d8d2;}.cls-15{fill:#10110e;}.cls-16{fill:#e5e5e5;}.cls-17{fill:#8accce;opacity:0.2;}.cls-18{fill:#cecece;}.cls-19{fill:#f8b600;}.cls-20{fill:#d69a03;}.cls-21{fill:#b20088;}</style></defs><g id="Layer_2" data-name="Layer 2"><g id="Layer_1-2" data-name="Layer 1"><g id="background"><path class="cls-1" d="M154.23,0S9.29,113.32,107.37,132.93,403.22,78.45,452,127.49s-111.43,102.43-98.35,116.6,312.76-52.31,307.31,0-513.27,105.7-552.5,123.14S0,413.46,0,413.46V0Z"/><path class="cls-1" d="M785.19,0S595.58,122,654.42,134s236.48,57.76,197.25,94.81-181.32,49-169.67,78.46,452.57,44.79,486.79,69.75S1364,429,1364,429V0Z"/><path class="cls-2" d="M23.46,71.91c8.46-5.08-6.54,101.34,62.11,111.15s267-22.88,264.81-16.34S181.47,222.29,208.71,243s99.17,30.51,131.86,34.87,204.88-17.44,204.88-17.44-440.26,63.21-455.52,73-67.56,36-66.47,40.32S107.37,291,91,265.88-3.79,88.25,23.46,71.91Z"/><path class="cls-2" d="M874.55,54.47s-118.78,29.43-74.1,59.94,158,88.25,155.83,108.42S823.33,285.5,827.69,295.31s258.27,33.78,275.71,42.5S949.75,296.4,966.09,283.32,1074,240.49,1066.35,214.5,864.74,123.13,858.21,109,886.54,66.46,874.55,54.47Z"/><path class="cls-3" d="M558.48,123.16c1.9,0,.95,12.38,2.86,12.38s10.81-1.27,10.81,0S561.34,138.08,561,139s-1.27,10.17-2.54,10.8,0-8.26-1.59-9.21-11.77-1-11.45-2.55,10.18-.63,10.81-3.81Z"/><path class="cls-4" d="M1097.66,120.36c.93,0,.47,6,1.4,6s5.28-.62,5.28,0-5.28,1.24-5.44,1.71-.62,5-1.24,5.28,0-4-.77-4.51-5.75-.46-5.59-1.24,5-.31,5.28-1.86Z"/><path class="cls-4" d="M1067.56,268.9c.93,0,.46,6,1.39,6s5.28-.62,5.28,0-5.28,1.24-5.43,1.71-.62,5-1.24,5.27,0-4-.78-4.5-5.74-.46-5.59-1.24,5-.31,5.28-1.86Z"/><path class="cls-5" d="M882.42,28.61c.93,0,.46,6,1.4,6s5.27-.62,5.27,0-5.27,1.24-5.43,1.71-.62,5-1.24,5.27,0-4-.78-4.5-5.74-.46-5.59-1.24,5-.31,5.28-1.86Z"/><path class="cls-3" d="M213.8,338.82c1.91,0,.95,12.38,2.86,12.38s10.81-1.28,10.81,0-10.81,2.54-11.13,3.49-1.27,10.18-2.54,10.81,0-8.26-1.59-9.22-11.76-.95-11.44-2.54,10.17-.64,10.8-3.82S213.8,338.82,213.8,338.82Z"/><path class="cls-3" d="M117.77,117.74c.93,0,.46,6,1.39,6s5.28-.62,5.28,0-5.28,1.24-5.43,1.71-.62,5-1.24,5.28,0-4-.78-4.5-5.74-.47-5.59-1.25,5-.31,5.28-1.86Z"/><circle class="cls-6" cx="135.77" cy="293.2" r="2.25"/><circle class="cls-6" cx="203.46" cy="107.54" r="2.71"/><circle class="cls-6" cx="333.77" cy="262.33" r="3.26"/><circle class="cls-6" cx="373.73" cy="152.25" r="2.37"/><path class="cls-6" d="M489.3,77.12v0Z"/><circle class="cls-6" cx="373.73" cy="67.74" r="2.37"/><circle class="cls-6" cx="492.01" cy="193.94" r="2.7"/><circle class="cls-6" cx="457.74" cy="104.24" r="2.7"/><circle class="cls-6" cx="719.98" cy="115.67" r="2.07"/><circle class="cls-6" cx="731.05" cy="56.17" r="1.7"/><circle class="cls-6" cx="623.5" cy="37.17" r="2.04"/><circle class="cls-6" cx="525.38" cy="69.74" r="2"/><circle class="cls-6" cx="602.68" cy="331.81" r="1.63"/><circle class="cls-6" cx="537.8" cy="386.56" r="2.56"/><circle class="cls-6" cx="920.91" cy="295.76" r="2.56"/><circle class="cls-6" cx="962.28" cy="389.78" r="3.27"/><circle class="cls-6" cx="1067.71" cy="301.59" r="3.27"/><circle class="cls-6" cx="265.93" cy="232.2" r="2"/><circle class="cls-6" cx="1039.47" cy="66.55" r="1.19"/><circle class="cls-7" cx="992.5" cy="204.29" r="2.43"/><circle class="cls-6" cx="450.28" cy="322.3" r="2.56"/><circle class="cls-6" cx="858.02" cy="367.53" r="1.99"/><circle class="cls-6" cx="687.86" cy="307.51" r="2.65"/><circle class="cls-6" cx="405.53" cy="319.74" r="2.03"/><circle class="cls-6" cx="216.48" cy="176.36" r="2.37"/><circle class="cls-6" cx="297.5" cy="216.65" r="2.15"/><circle class="cls-6" cx="253.67" cy="275.42" r="1.63"/><circle class="cls-6" cx="30.34" cy="208.17" r="1.44"/><circle class="cls-6" cx="144.56" cy="26.55" r="2.04"/><circle class="cls-6" cx="249.17" cy="37.17" r="2.04"/><circle class="cls-6" cx="61.78" cy="68.74" r="1"/><circle class="cls-6" cx="721.01" cy="378.62" r="1.04"/><circle class="cls-6" cx="1165.62" cy="59.34" r="1.46"/><circle class="cls-6" cx="1280.21" cy="80.13" r="5.23"/><circle class="cls-6" cx="189.92" cy="382.81" r="5.23"/><circle class="cls-6" cx="1242.62" cy="245.18" r="1.63"/><circle class="cls-6" cx="1241.8" cy="316.9" r="0.82"/><circle class="cls-6" cx="1135.55" cy="272.97" r="2.45"/><circle class="cls-6" cx="1143.9" cy="366.53" r="1"/><circle class="cls-6" cx="1005.08" cy="343.97" r="1.53"/><circle class="cls-6" cx="1090.49" cy="361.86" r="0.97"/><circle class="cls-6" cx="1140.95" cy="322.69" r="2.95"/><circle class="cls-6" cx="1187.76" cy="359.51" r="2.36"/><circle class="cls-6" cx="1247.14" cy="386.89" r="2.89"/><circle class="cls-6" cx="1313.41" cy="313.12" r="2.96"/><circle class="cls-6" cx="1325.17" cy="42.48" r="3.27"/><circle class="cls-6" cx="1278.99" cy="21.64" r="1.23"/><circle class="cls-6" cx="1173.74" cy="102.44" r="1.41"/><circle class="cls-6" cx="1102.12" cy="22.95" r="2.53"/><circle class="cls-6" cx="1005.85" cy="11.38" r="0.77"/><circle class="cls-6" cx="1331" cy="217.06" r="2.56"/><circle class="cls-8" cx="1301.88" cy="205.51" r="1.22"/><circle class="cls-8" cx="539.1" cy="284.07" r="1.3"/><circle class="cls-8" cx="506.42" cy="363.7" r="1.84"/><circle class="cls-8" cx="302.67" cy="83.14" r="3.01"/><circle class="cls-8" cx="236.79" cy="195.29" r="1.35"/><circle class="cls-8" cx="164.98" cy="126.29" r="2.03"/><circle class="cls-8" cx="193.93" cy="53.86" r="4.02"/><circle class="cls-8" cx="56.5" cy="267.02" r="1.44"/><circle class="cls-8" cx="112.59" cy="72.92" r="1.19"/><circle class="cls-8" cx="175.24" cy="318.3" r="1.44"/><circle class="cls-8" cx="117.88" cy="348.07" r="4.1"/><circle class="cls-8" cx="1018.54" cy="254.86" r="1.5"/><circle class="cls-8" cx="1177.18" cy="193.26" r="2.03"/><circle class="cls-8" cx="771.03" cy="234.98" r="2.03"/><circle class="cls-7" cx="1097.67" cy="96.09" r="1.35"/><circle class="cls-7" cx="401.99" cy="245.05" r="1.51"/><circle class="cls-7" cx="313.37" cy="320.2" r="2.49"/><circle class="cls-7" cx="326.05" cy="405.01" r="2.09"/><circle class="cls-7" cx="1038.88" cy="29.18" r="0.59"/><circle class="cls-7" cx="1164.89" cy="131.52" r="0.73"/><circle class="cls-7" cx="1196.85" cy="238.64" r="1.63"/><circle class="cls-7" cx="1003.55" cy="128.51" r="1.63"/><circle class="cls-7" cx="1258.96" cy="272.97" r="2.45"/><circle class="cls-7" cx="1306.49" cy="351.33" r="5.82"/><circle class="cls-7" cx="1218.15" cy="134.02" r="2.5"/><circle class="cls-7" cx="936.74" cy="16.28" r="4.14"/></g><g id="space"><g id="path" class="cls-9"><path class="cls-10" d="M365,228.07c-.08.15-.15.3-.22.45"/><path class="cls-11" d="M362.76,234.14c-6.25,25.1,15.3,64.8,20.41,81.94,5.55,18.59,19.52,63.14-46.14,73.7s-114.15-120.63-136.27-171-76.32-35.65-76.32-35.65-17.62,5.55-21.16,23.57,12.11,29.87,15.86,30.89,15.74-2.25,18.88-8.92c1.88-4,.68-8.35-.57-11.15"/><path class="cls-10" d="M136,214.91l-.27-.41"/></g><g id="moon"><circle class="cls-12" cx="133.61" cy="211.91" r="25.71"/><circle class="cls-13" cx="149.85" cy="209.2" r="8.12"/><circle class="cls-13" cx="148.62" cy="222" r="2.71"/><circle class="cls-13" cx="119.14" cy="218.31" r="2.83"/><path class="cls-13" d="M116.93,194.59a6,6,0,1,0,6-6h-.11a25.44,25.44,0,0,0-5.16,3.17A6,6,0,0,0,116.93,194.59Z"/><path class="cls-13" d="M126.4,232.2a4.18,4.18,0,0,0-4,2.85,25.6,25.6,0,0,0,8,2.36,4,4,0,0,0,.14-1A4.18,4.18,0,0,0,126.4,232.2Z"/></g></g><path class="cls-6" d="M449.44,51.49A29.07,29.07,0,0,1,466.22,20.9a28.52,28.52,0,0,0-6.77.17,29.06,29.06,0,1,0,16.12,55.24A29.08,29.08,0,0,1,449.44,51.49Z"/><path class="cls-6" d="M372.33,184.36c1.5-.69-2.12-.92-2.33-1.57a25,25,0,0,1-4.1-1.44c-2.42-1.07-7.8-6.11-7.82-10.09s1.82-11.33,5.25-15.27a25.79,25.79,0,0,1,7.61-5.9s-3.26-13.42-2.18-23,4.57-26.36,10.81-25.66,2.78,16.36.06,26.48a135,135,0,0,0-3.62,20.5,29.19,29.19,0,0,1,8.37,0,31.46,31.46,0,0,1,7.14,1.85S395.84,136,403.79,128s16.26-16.28,20.36-12.9S421,127,416.27,131.28s-12.71,10.6-15.61,14.16a70,70,0,0,0-5.24,7.52,22.42,22.42,0,0,1,8,10.89c2,6.83,1.07,14.73-1.12,17.79s-6.93,4.82-9.26,4.55c-2-.23-10.58.49-10.58.49Z"/><path class="cls-8" d="M392.66,150.55s7-12.09,12.61-18.62,12.34-11.16,14-9.76-4.95,7.39-11,13.24-14,16.54-14,16.54Z"/><path class="cls-8" d="M372.47,149.57l1.59-.88s1.88-12.92,3.35-20.74,3.44-17.52.81-17.84-5.66,6.94-6.38,17.77A132.13,132.13,0,0,0,372.47,149.57Z"/><circle class="cls-14" cx="364.05" cy="173.61" r="2.91"/><circle class="cls-14" cx="397.98" cy="179.09" r="2.91"/><path class="cls-15" d="M385.81,176.88a.27.27,0,0,0-.39,0,3.23,3.23,0,0,1-2.35,1.24,3.17,3.17,0,0,1-2.05-1.4l.35-2.2c.87-.3,2.38-1.43,2.45-1.89a2.09,2.09,0,0,0-1.95-2c-1.46-.24-2.67.55-2.8,1.35s1.33,2.08,1.74,2.47l-.35,2.15a2.68,2.68,0,0,1-2.1.71c-1.18-.19-1.8-1.93-1.81-1.95a.28.28,0,0,0-.53.19c0,.08.74,2.08,2.25,2.32a3.12,3.12,0,0,0,2.4-.71,3.66,3.66,0,0,0,2.17,1.45l.18,0a3.74,3.74,0,0,0,2.84-1.44A.28.28,0,0,0,385.81,176.88Z"/><path class="cls-16" d="M370.94,150.09s-2.44-11-2.35-16.57.79-14.72,2.86-20.57A72.41,72.41,0,0,1,374.6,105s-4.18,13.75-4.47,20S370.94,150.09,370.94,150.09Z"/><path class="cls-16" d="M391.52,150.24S397,135,402.32,129.57,414.17,117.5,417.18,116l3-1.46s-12.7,9.65-18.41,18.34S391.52,150.24,391.52,150.24Z"/><path class="cls-15" d="M371.4,165.21a2.27,2.27,0,1,0,1.89,2.61A2.27,2.27,0,0,0,371.4,165.21Zm.31,2.19a.61.61,0,0,1-.51-.71.62.62,0,1,1,1.22.2A.61.61,0,0,1,371.71,167.4Z"/><path class="cls-15" d="M393.53,168.78a2.27,2.27,0,1,0,1.88,2.61A2.28,2.28,0,0,0,393.53,168.78Zm.3,2.19a.62.62,0,0,1-.51-.71.62.62,0,1,1,1.22.2A.61.61,0,0,1,393.83,171Z"/><ellipse class="cls-17" cx="382.39" cy="170.16" rx="15.24" ry="21.14" transform="translate(153.48 520.56) rotate(-80.83)"/><path class="cls-6" d="M409,165.88l1.61-9.95A3.69,3.69,0,0,0,414,153a4,4,0,0,0-7.8-1.26,3.68,3.68,0,0,0,2.29,3.84l-1.56,9.69-.29,0c-1.25-10.74-9-18.54-20.44-20.38s-21.24,3-25.82,12.91l-1-.16a4.11,4.11,0,0,0-4.87,3.14l-1.24,7.65a4.13,4.13,0,0,0,3.64,4.52l1.35.22a19.57,19.57,0,0,0,4.1,8.38l-1.05.68-1.14.73a1.2,1.2,0,0,0-.41,1.64c3.48,5.93,10.09,10.13,18.1,11.43s15.6-.56,20.78-5.16a1.19,1.19,0,0,0,.13-1.68l-1.64-2a19.74,19.74,0,0,0,6.53-6.67l1.49.24a4.12,4.12,0,0,0,4.88-3.14l1.23-7.65A3.9,3.9,0,0,0,409,165.88Zm-24.57-10.12c10.57,1.71,18,10.05,16.65,18.59-1.49,9.25-11.81,11.84-21.31,10.31s-18.49-7.24-17-16.49C364.15,159.62,373.86,154.06,384.43,155.76Z"/><path class="cls-18" d="M409.36,176.78l-4.29-.69c.11-.68.33-1.33.45-2.11a43.14,43.14,0,0,0,.52-8.62l1.82.3a3.05,3.05,0,0,1,2.75,3.41Z"/><path class="cls-18" d="M405.92,179.5l-2.05-.33a30.67,30.67,0,0,0,1.58-4.21l4.1.66-.28,1.74A2.78,2.78,0,0,1,405.92,179.5Z"/><path class="cls-18" d="M357.75,157.35l1.63.26a37.82,37.82,0,0,0-1.88,7,12,12,0,0,0-.19,1.8l-3.62-.59,1-6.49A2.44,2.44,0,0,1,357.75,157.35Z"/><path class="cls-19" d="M384.47,154.55a25.89,25.89,0,0,0-8.15,0l1.57-9.76a27,27,0,0,1,15.9,2.57l-1.59,9.84A23.69,23.69,0,0,0,384.47,154.55Z"/><path class="cls-18" d="M377.13,146.86l-1.26,7.78c-7.51,1.47-13.43,6.54-14.52,13.3-1.41,8.74,5.94,16,18.21,18s21.52-2.55,22.94-11.35c1.09-6.76-2.93-13.43-9.6-17.19l1.26-7.78c7.81,4.34,11.76,12.83,10.11,23-1.85,11.48-11.89,17.78-25.09,15.65S358.43,177,360.29,165.48C361.93,155.34,368.34,148.52,377.13,146.86Z"/><path class="cls-18" d="M353.68,165.85l3.51.57c-.19,2.19-.29,4.4-.28,6.5l-1.75-.29c-1.42-.22-2.24-2.06-1.89-4.23Z"/><ellipse class="cls-18" cx="410.09" cy="152.38" rx="2.81" ry="3.13" transform="translate(194.32 532.95) rotate(-80.83)"/><path class="cls-6" d="M360.41,182.78s-6.22,2.73-9.61,5.77-7,7.56-8.24,11.64.19,5.24,1.1,6.08,4.42,2.22,8.76-1.48,3.51-3.37,3.51-3.37-1.12,9.66-.32,16.16,2.05,16,8,16.5,5.69-5.89,6.17-7.32a2.8,2.8,0,0,1,3.26-1.59c1.2.2,3.37.66,3.39,4.14s-2.6,6,3,7.34,9.15-5.76,13-13.71A77,77,0,0,0,397.85,207s11.49-5.91,15.51-10,7.12-6.85,5.9-10.75-5.23-4.15-8.76-3.12-10.88,4-10.88,4l-1.95.91.21,2.26s-9.92,7-18.68,5.24S362.64,187,362.64,187Z"/><path class="cls-8" d="M353.27,186.67a22.21,22.21,0,0,0-3,2.34l-2.76,2.84s1.73,3,3,2.9,2.34-1.4,3.35-2.3,1.66-1.2,2-2.27S353.27,186.67,353.27,186.67Z"/><path class="cls-8" d="M400.05,186.92l6.51-2.45s2.61,1.47,2.39,2.14-2.92,1.85-3.6,2.09a7.22,7.22,0,0,1-2.45.77C402.28,189.37,400.05,186.92,400.05,186.92Z"/><polygon points="384.76 207.35 384.46 209.21 396.26 213.81 396.77 212.04 384.76 207.35"/><polygon points="367.96 204.64 367.65 206.53 355.43 207.25 355.55 205.39 367.96 204.64"/><path class="cls-18" d="M384.46,209.21l-2.21,3.21-9.05-.65s4.62,2.71,7.92,2.93,2.34-1.5,4.12-2.33,11,1.44,11,1.44"/><path class="cls-19" d="M371,200.33l12.7,2a3.67,3.67,0,0,1,1.09.91,4,4,0,0,1,.39,1.24l-1.24,7.7a3.2,3.2,0,0,1-.85,1.21,6.89,6.89,0,0,1-1.24.56L369,211.93a2.45,2.45,0,0,1-1.23-.83,4.38,4.38,0,0,1-.58-1.42l1.22-8.1s.11-.66,1.11-1.06A4.17,4.17,0,0,1,371,200.33Z"/><rect class="cls-6" x="370.95" y="204.62" width="11.4" height="1.61" rx="0.64" transform="translate(37.54 -57.38) rotate(9.17)"/><circle class="cls-6" cx="375.78" cy="209.58" r="1.07"/><circle class="cls-6" cx="380.06" cy="210.27" r="1.07"/><circle class="cls-6" cx="371.41" cy="208.87" r="1.07"/><path class="cls-18" d="M378,194c-7.94-1.28-14.54-5.25-18.17-11l2.54-1.63c3.94,3.84,9.53,6.56,16.43,7.67s13.41.49,18.36-1.91l1.82,2.05C393.7,193.49,385.9,195.28,378,194Z"/><path class="cls-20" d="M377.23,201.87s-5.79-1-6.1-1-1.31-.08-1.65.28a1.58,1.58,0,0,0-.53.81c-.07.3-.78,4.83-.78,4.83s.95-4.33,1.83-5C371.06,201.06,377.23,201.87,377.23,201.87Z"/><polygon class="cls-18" points="408.9 154.31 406.92 166.6 410.37 154.54 408.9 154.31"/><path class="cls-18" d="M367,206.8l-11.57.45a61.56,61.56,0,0,0,.4,12.06c.88,5.29,1.94,9.59,2.78,10.93s.34-.79,2.79-2.09a24.59,24.59,0,0,1,2.81-1.4s-4.89-9.38-4.4-13.16S367,206.8,367,206.8Z"/><path class="cls-18" d="M355.93,201.42,359.6,198s-1.26,4.67-.37,5.46,8.11,1.24,8.11,1.24l-11.79.72Z"/><path class="cls-18" d="M377.3,144.81a19.44,19.44,0,0,0-11.67,5.64c-5.07,5.24-5.26,7.32-5.26,7.32A53.25,53.25,0,0,0,358.58,168c-.22,4.73.11,10.26,4.37,14a34.08,34.08,0,0,0,21.41,7.62c8.55-.2,9.53-1,9.53-1s-20.29.1-26.88-5.93-6.25-10.11-5.66-14.66,2.36-10.28,6.63-11.9a52.77,52.77,0,0,1,8-2.34Z"/><path class="cls-18" d="M397.85,207l.55-3.42s9-4.31,13.06-6.53,4.61-2.83,4.61-2.83A60.06,60.06,0,0,1,406,202.41C401.24,205.2,397.85,207,397.85,207Z"/><path class="cls-18" d="M374.3,225.5a1.72,1.72,0,0,1,1.46,1.18,15,15,0,0,1,.57,3.8,7.45,7.45,0,0,1,3.46-.16,7.15,7.15,0,0,1,3.18,1.23s-2.3-3.52-3.72-5.26S374.3,225.5,374.3,225.5Z"/><path class="cls-18" d="M348.83,193.68l-1.33-1.83s-3.43,4.42-4.19,6.38a32.55,32.55,0,0,0-1.11,3.41S346.11,193.66,348.83,193.68Z"/><polygon class="cls-18" points="360.41 182.78 353.27 186.67 354.5 187.85 361.29 184.43 360.41 182.78"/><polygon class="cls-21" points="353.27 186.67 351.19 188.18 347.5 191.85 348.69 193.62 354.5 187.85 353.27 186.67"/><path class="cls-21" d="M392,189s-8.34,1.31-13.49.13a58.1,58.1,0,0,1-13-5.13,13.33,13.33,0,0,1-2.22-1.64L362,182.1l-.35.41a24.48,24.48,0,0,0,8.2,5.12c5.41,2.16,10.29,3.47,15,3A20.09,20.09,0,0,0,392,189Z"/></g></g></svg>